<svg width="14" height="14" viewBox="0 0 14 14" fill="none" xmlns="http://www.w3.org/2000/svg">
<path d="M12.46 2.19977C12.46 1.71977 12.13 1.50977 11.8 1.50977H4.57004C4.21004 1.50977 3.94004 1.77977 3.94004 2.13977C3.94004 2.49977 4.21004 2.76977 4.57004 2.76977H10.33L1.72004 11.4098C1.48004 11.6498 1.48004 12.0398 1.72004 12.3098C1.84004 12.4298 2.02004 12.4898 2.17004 12.4898C2.32004 12.4898 2.50004 12.4298 2.62004 12.3098L11.2 3.72977V9.48977C11.2 9.84977 11.47 10.1198 11.83 10.1198C12.19 10.1198 12.46 9.84977 12.46 9.48977V2.19977Z" fill="#E0E0E0"/>
</svg>
