<svg width="14" height="14" viewBox="0 0 14 14" fill="none" xmlns="http://www.w3.org/2000/svg">
<path fill-rule="evenodd" clip-rule="evenodd" d="M5.79902 10.5815C5.89461 10.7607 5.99033 10.9221 6.08183 11.0652C5.10969 10.8466 4.26614 10.2882 3.68243 9.52128C4.06767 9.30433 4.56108 9.07944 5.15426 8.91489C5.32284 9.57611 5.56069 10.1346 5.79902 10.5815ZM6.53433 10.1893C6.32728 9.80117 6.11978 9.31639 5.97028 8.742C6.29211 8.69422 6.63567 8.66667 7.00006 8.66667C7.36439 8.66667 7.70794 8.69422 8.02972 8.74194C7.88022 9.31639 7.67272 9.80117 7.46567 10.1893C7.29967 10.5006 7.13428 10.7491 7 10.9309C6.86572 10.7491 6.70033 10.5006 6.53433 10.1893ZM5.75 7C5.75 7.3245 5.77183 7.6325 5.81033 7.92328C6.18161 7.86633 6.57856 7.83333 7.00006 7.83333C7.4215 7.83333 7.81844 7.86628 8.18967 7.92328C8.22817 7.63244 8.25 7.3245 8.25 7C8.25 6.6755 8.22817 6.36756 8.18967 6.07672C7.81844 6.13367 7.4215 6.16667 7.00006 6.16667C6.57856 6.16667 6.18161 6.13367 5.81033 6.07672C5.77183 6.3675 5.75 6.6755 5.75 7ZM4.99271 5.90489C4.94432 6.24878 4.91667 6.61411 4.91667 7C4.91667 7.38589 4.94432 7.75122 4.99271 8.09511C4.28521 8.28506 3.69934 8.55289 3.24624 8.81061C2.98166 8.26311 2.83333 7.64889 2.83333 7C2.83333 6.35111 2.98166 5.73691 3.24624 5.18938C3.69929 5.44707 4.28517 5.71492 4.99271 5.90489ZM5.97028 5.25803C6.29211 5.30579 6.63567 5.33333 7.00006 5.33333C7.36439 5.33333 7.70794 5.30579 8.02972 5.25804C7.88022 4.68364 7.67272 4.19885 7.46567 3.81067C7.29967 3.49941 7.13428 3.25087 7 3.06907C6.86572 3.25087 6.70033 3.49941 6.53433 3.81066C6.32728 4.19884 6.11978 4.68363 5.97028 5.25803ZM9.00728 5.90494C9.05567 6.24883 9.08333 6.61417 9.08333 7C9.08333 7.38589 9.05567 7.75117 9.00728 8.09506C9.71478 8.28506 10.3007 8.55289 10.7538 8.81061C11.0183 8.26306 11.1667 7.64883 11.1667 7C11.1667 6.35117 11.0183 5.73693 10.7538 5.18941C10.3007 5.44709 9.71483 5.71494 9.00728 5.90494ZM10.3176 4.47877C9.93228 4.69573 9.43889 4.92058 8.84578 5.08516C8.67717 4.42391 8.43933 3.86538 8.201 3.41851C8.10539 3.23932 8.00967 3.07792 7.91817 2.93483C8.89033 3.15346 9.73389 3.71187 10.3176 4.47877ZM5.15425 5.08514C4.56112 4.92056 4.06772 4.69571 3.68244 4.47874C4.26614 3.71186 5.10969 3.15346 6.08178 2.93483C5.99033 3.07792 5.89461 3.23931 5.79902 3.4185C5.56069 3.86537 5.32284 4.42389 5.15425 5.08514ZM8.84578 8.91483C8.67717 9.57611 8.43933 10.1346 8.201 10.5815C8.10539 10.7607 8.00967 10.9221 7.91817 11.0652C8.89033 10.8466 9.73389 10.2881 10.3176 9.52122C9.93233 9.30428 9.43894 9.07944 8.84578 8.91483ZM7 12C9.76144 12 12 9.76144 12 7C12 4.23858 9.76144 2 7 2C4.23858 2 2 4.23858 2 7C2 9.76144 4.23858 12 7 12Z" fill="#E0E0E0"/>
</svg>
