<svg width="24" height="24" viewBox="0 0 24 24" fill="none" xmlns="http://www.w3.org/2000/svg">
<circle cx="12" cy="9" r="1" fill="#30F6AF"/>
<path fill-rule="evenodd" clip-rule="evenodd" d="M12 2C15.866 2 19 5.13401 19 9C19.14 12.13 16.63 16.3 12.81 21.58C12.6219 21.8398 12.3207 21.9936 12 21.9936C11.6793 21.9936 11.378 21.8398 11.19 21.58C7.36996 16.29 4.85996 12.12 4.99996 9C4.99996 5.13401 8.13396 2 12 2ZM8.99996 9C8.99996 10.6569 10.3431 12 12 12C12.7956 12 13.5587 11.6839 14.1213 11.1213C14.6839 10.5587 15 9.79565 15 9C15 7.34315 13.6568 6 12 6C10.3431 6 8.99996 7.34315 8.99996 9Z" fill="#30F6AF"/>
</svg>
