<svg width="42" height="41" viewBox="0 0 42 41" fill="none" xmlns="http://www.w3.org/2000/svg">
<path fill-rule="evenodd" clip-rule="evenodd" d="M31.0088 29.3135C31.5945 29.2855 32.1242 29.0358 32.5138 28.6042L32.5127 28.603C32.8895 28.1725 33.0843 27.6148 33.0843 27.0303C32.9455 25.1088 32.7787 23.4113 32.5687 21.9763C32.249 19.8472 31.7753 17.6888 31.4417 16.255C31.3368 15.804 31.089 15.3991 30.7351 15.1005C30.3813 14.802 29.9403 14.6258 29.4782 14.5983C27.7387 14.4863 24.8418 14.3615 21 14.3615C17.1442 14.3615 14.2613 14.4863 12.5218 14.5983C11.5617 14.6683 10.7812 15.3217 10.5584 16.255C10.2107 17.6888 9.73702 19.8472 9.43135 21.9763C9.20735 23.4113 9.04168 25.1088 8.91568 27.0303C8.89429 27.3159 8.93147 27.6028 9.02497 27.8734C9.11846 28.144 9.26628 28.3927 9.45935 28.6042C9.64986 28.8166 9.88095 28.9888 10.139 29.1107C10.3971 29.2325 10.6769 29.3014 10.962 29.3135C14.3014 29.4726 17.644 29.5562 20.9872 29.5643C24.3292 29.5565 27.6706 29.4729 31.0088 29.3135ZM26.589 20.6055C26.9489 20.2451 27.437 20.0421 27.9463 20.0408V20.042C29.0173 20.042 29.8667 20.9053 29.8667 21.9635H26.026C26.0266 21.4542 26.2291 20.9658 26.589 20.6055ZM12.6672 20.6055C13.0271 20.2451 13.5152 20.0421 14.0245 20.0408V20.042C15.0967 20.042 15.946 20.9053 15.946 21.9635H12.1042C12.1048 21.4542 12.3072 20.9658 12.6672 20.6055ZM23.1801 26.0928C22.5981 26.6746 21.809 27.0017 20.986 27.0023C20.1617 27.002 19.3709 26.6755 18.7866 26.094C18.2023 25.5125 17.8718 24.7234 17.8675 23.899H24.0905C24.0896 24.722 23.7622 25.511 23.1801 26.0928Z" fill="#D9D9D9" fill-opacity="0.5"/>
<path fill-rule="evenodd" clip-rule="evenodd" d="M9 0C4.02944 0 0 4.02944 0 9V32C0 36.9706 4.02944 41 9 41H33C37.9706 41 42 36.9706 42 32V9C42 4.02944 37.9706 0 33 0H9ZM33.2792 15.8093C33.6268 17.2852 34.1145 19.4983 34.4342 21.6987C34.657 23.1745 34.8378 24.928 34.9918 26.9055C35.0288 27.4459 34.9566 27.9881 34.7796 28.5C34.6026 29.0119 34.3245 29.483 33.9617 29.8852C33.5993 30.2884 33.1602 30.6155 32.67 30.8472C32.1799 31.079 31.6485 31.2108 31.1068 31.235C28.6848 31.3458 24.9678 31.4858 21 31.4858C17.0322 31.4858 13.3152 31.347 10.8932 31.235C10.3507 31.2154 9.81778 31.0857 9.32699 30.8536C8.8362 30.6215 8.39776 30.292 8.03835 29.8852C7.29985 29.0638 6.93818 28.0057 7.00818 26.9055C7.14818 24.928 7.31502 23.1885 7.53785 21.6987C7.85752 19.4983 8.34518 17.2852 8.69285 15.8093C8.89135 14.9598 9.35915 14.1971 10.0265 13.6351C10.6938 13.0731 11.5249 12.7419 12.3959 12.6908C14.1645 12.58 17.0882 12.454 20.986 12.454C24.8838 12.454 27.8075 12.58 29.5762 12.6908C30.4471 12.7419 31.2782 13.0731 31.9456 13.6351C32.6129 14.1971 33.0807 14.9598 33.2792 15.8093ZM22.183 9.71117C22.183 10.3657 21.6393 10.8942 20.986 10.8942C20.3315 10.8942 19.789 10.3528 19.789 9.71117C19.789 9.55398 19.82 9.39832 19.8801 9.25309C19.9403 9.10787 20.0285 8.97591 20.1396 8.86476C20.2508 8.75361 20.3827 8.66544 20.5279 8.60528C20.6732 8.54513 20.8288 8.51417 20.986 8.51417C21.1432 8.51417 21.2989 8.54513 21.4441 8.60528C21.5893 8.66544 21.7213 8.75361 21.8324 8.86476C21.9436 8.97591 22.0317 9.10787 22.0919 9.25309C22.1521 9.39832 22.183 9.55398 22.183 9.71117Z" fill="#D9D9D9" fill-opacity="0.5"/>
</svg>
