<svg width="42" height="41" viewBox="0 0 42 41" fill="none" xmlns="http://www.w3.org/2000/svg">
<path fill-rule="evenodd" clip-rule="evenodd" d="M9 0C4.02944 0 0 4.02944 0 9V32C0 36.9706 4.02944 41 9 41H33C37.9706 41 42 36.9706 42 32V9C42 4.02944 37.9706 0 33 0H9ZM15.1973 28.7645C15.4884 28.9688 15.7173 29.2497 15.8586 29.576L15.8533 29.5787C16.0658 30.073 16.0802 30.6301 15.8933 31.1347C15.7837 31.4078 15.6141 31.6527 15.3969 31.8512C15.1798 32.0498 14.9207 32.197 14.639 32.2817C14.3572 32.3665 14.06 32.3868 13.7693 32.341C13.4786 32.2952 13.202 32.1846 12.9599 32.0173C12.7453 31.8723 12.5615 31.6862 12.4193 31.4698C12.277 31.2533 12.179 31.0108 12.131 30.7563C12.0831 30.5017 12.086 30.2402 12.1397 29.9868C12.1934 29.7334 12.2968 29.4932 12.4439 29.28C12.5319 29.149 12.6358 29.0294 12.7533 28.924L10.5746 22.2107C9.84889 22.3078 9.11082 22.2496 8.40927 22.04C7.17821 21.6466 6.15251 20.7826 5.55562 19.6362C4.95874 18.4899 4.83904 17.1542 5.22261 15.92C5.6157 14.6875 6.48049 13.6606 7.62814 13.0635C8.77579 12.4665 10.1131 12.3478 11.3479 12.7333L10.8893 14.2C9.13594 13.64 7.26661 14.6267 6.70527 16.3787C6.5731 16.7963 6.52459 17.2358 6.56253 17.6722C6.60046 18.1085 6.72409 18.5331 6.92633 18.9216C7.12858 19.3102 7.40547 19.655 7.74116 19.9363C8.07684 20.2177 8.46473 20.4301 8.88261 20.5613C8.99224 20.5938 9.10351 20.6205 9.21594 20.6413C9.23269 20.6448 9.24799 20.647 9.26237 20.649C9.2869 20.6525 9.30875 20.6556 9.33061 20.664L9.55061 20.6973C9.58394 20.7107 9.63061 20.7107 9.67727 20.7107C9.74527 20.724 9.80261 20.724 9.87194 20.724H10.0853C10.1199 20.7107 10.1546 20.7107 10.1919 20.7107C10.2104 20.7067 10.2294 20.7045 10.2486 20.7022C10.2751 20.699 10.3022 20.6957 10.3293 20.688C10.3908 20.6877 10.4522 20.6801 10.5119 20.6653C10.5292 20.6609 10.5463 20.6568 10.5633 20.6528C10.5922 20.6459 10.6207 20.6391 10.6493 20.6307C10.6833 20.6236 10.7172 20.6136 10.7504 20.604C10.7732 20.5973 10.7956 20.5908 10.8173 20.5853C10.8409 20.5791 10.8649 20.5699 10.8891 20.5607C10.9113 20.5522 10.9336 20.5437 10.9559 20.5373C10.9957 20.5298 11.0307 20.5155 11.0682 20.5002C11.0835 20.4939 11.0993 20.4875 11.1159 20.4813C11.1634 20.4676 11.209 20.4484 11.2519 20.424C11.2812 20.4042 11.3125 20.3877 11.3453 20.3747C11.3502 20.3698 11.3576 20.3671 11.3652 20.3644C11.3742 20.3612 11.3835 20.3579 11.3893 20.3507L11.3951 20.3481C11.4291 20.333 11.5414 20.2831 11.5626 20.2707L12.0559 21.784L14.2093 28.4187C14.5642 28.4406 14.9062 28.5603 15.1973 28.7645ZM19.0045 4.93933C19.594 4.68813 20.2272 4.5556 20.8679 4.54933L20.8666 4.54667C23.5599 4.51467 25.7679 6.68 25.7866 9.35067L24.2506 9.364C24.2411 8.47992 23.881 7.63577 23.2495 7.017C22.618 6.39824 21.7667 6.05547 20.8826 6.064C19.9985 6.0735 19.1544 6.43356 18.5356 7.06508C17.9168 7.69659 17.5741 8.54791 17.5826 9.432C17.5835 9.54789 17.5911 9.66364 17.6053 9.77867C17.6087 9.79363 17.6124 9.80721 17.6158 9.81987C17.6231 9.8467 17.6293 9.86935 17.6293 9.892C17.6341 9.92055 17.6385 9.95062 17.643 9.98071C17.6495 10.0251 17.656 10.0696 17.6639 10.1093L17.6973 10.2373C17.7081 10.2698 17.7165 10.3025 17.7246 10.3343C17.7335 10.3691 17.7421 10.4027 17.7533 10.4333C17.7562 10.441 17.7595 10.4497 17.7631 10.459C17.7745 10.4883 17.7885 10.5243 17.7986 10.5587C17.8084 10.5783 17.8173 10.6042 17.8246 10.6253C17.8263 10.6301 17.8278 10.6345 17.8293 10.6387L17.8639 10.732C17.8729 10.767 17.888 10.7953 17.9045 10.8264C17.91 10.8367 17.9156 10.8474 17.9213 10.8587C17.9431 10.9143 17.9699 10.9678 18.0013 11.0187C18.0322 11.0585 18.059 11.1014 18.0813 11.1467C18.1084 11.1974 18.1387 11.2464 18.1719 11.2933C18.1905 11.3112 18.2056 11.332 18.2205 11.3526C18.2345 11.372 18.2485 11.3912 18.2653 11.408C18.3005 11.4527 18.3343 11.4985 18.3666 11.5453C18.3929 11.5876 18.4242 11.6266 18.4599 11.6613C18.4797 11.6892 18.5004 11.711 18.5204 11.732C18.5234 11.7351 18.5263 11.7382 18.5293 11.7413L18.5639 11.776C18.5774 11.7894 18.6109 11.8267 18.6408 11.8599C18.6613 11.8827 18.68 11.9036 18.6893 11.9133L17.4066 12.8493L11.7573 16.956C11.8412 17.2915 11.8329 17.6435 11.7333 17.9747C11.6319 18.3453 11.4266 18.6387 11.1599 18.8787C10.7733 19.2387 10.2453 19.4187 9.70661 19.3853C9.56927 19.3853 9.43061 19.3613 9.29327 19.3187C8.25061 19.0067 7.65461 17.9187 7.96527 16.8787C8.03765 16.6308 8.15827 16.3997 8.32023 16.1986C8.48219 15.9975 8.68228 15.8304 8.90901 15.7069C9.13574 15.5834 9.38464 15.5059 9.64142 15.4788C9.89819 15.4518 10.1578 15.4757 10.4053 15.5493C10.5575 15.5928 10.7039 15.6546 10.8413 15.7333L16.5479 11.5853C16.2373 10.932 16.0546 10.1987 16.0413 9.47867C16.0341 8.83795 16.1532 8.2021 16.392 7.60748C16.6307 7.01286 16.9844 6.47115 17.4326 6.01332C17.8809 5.55549 18.4151 5.19054 19.0045 4.93933ZM34.2917 13.29C35.4493 13.8655 36.3316 14.8765 36.7453 16.1013L36.7493 16.0973C37.5973 18.6507 36.2239 21.4147 33.6906 22.2507L33.1973 20.7973C34.0346 20.5133 34.7253 19.909 35.1182 19.1169C35.511 18.3247 35.574 17.4092 35.2933 16.5707C35.1428 16.1287 34.9014 15.7231 34.5848 15.38C34.2682 15.0369 33.8833 14.7638 33.4548 14.5784C33.0263 14.3929 32.5638 14.2991 32.0969 14.3031C31.6301 14.307 31.1692 14.4086 30.7439 14.6013C30.7277 14.6065 30.7112 14.6145 30.6945 14.6226C30.6769 14.6312 30.6591 14.6399 30.6413 14.6453C30.6066 14.6633 30.5753 14.681 30.5439 14.6987C30.5126 14.7163 30.4813 14.734 30.4466 14.752C30.4073 14.7707 30.3698 14.793 30.3346 14.8187C30.3026 14.8418 30.2659 14.8649 30.2291 14.888C30.2108 14.8996 30.1924 14.9111 30.1746 14.9227C30.1317 14.9419 30.0928 14.9691 30.0599 15.0027C30.0488 15.0138 30.0373 15.0224 30.0256 15.0311C30.0136 15.0401 30.0014 15.0492 29.9893 15.0613C29.9593 15.0805 29.9379 15.1008 29.9164 15.1212C29.914 15.1235 29.9117 15.1257 29.9093 15.128L29.8066 15.232L29.6813 15.3587C29.6769 15.3645 29.6727 15.3701 29.6687 15.3755C29.6396 15.4145 29.6184 15.4429 29.5879 15.4733C29.5426 15.5187 29.5079 15.5653 29.4733 15.612L29.3933 15.7253C29.3695 15.7793 29.3381 15.8296 29.2999 15.8747C29.2882 15.8996 29.2761 15.9213 29.2637 15.9434C29.2537 15.9614 29.2435 15.9796 29.2333 16C29.2276 16.0164 29.2196 16.03 29.2115 16.0437C29.2026 16.059 29.1936 16.0743 29.1879 16.0933C29.1827 16.0992 29.18 16.1077 29.1774 16.1161C29.1747 16.1248 29.172 16.1333 29.1666 16.1387L29.0733 16.2987L27.7906 15.3587L22.1386 11.256C21.8653 11.44 21.5213 11.5413 21.1653 11.5547C20.7893 11.5653 20.4319 11.4627 20.1226 11.292C19.8307 11.1264 19.5862 10.8887 19.4125 10.6015C19.2388 10.3144 19.1417 9.98742 19.1306 9.652C19.1198 9.13137 19.3148 8.62751 19.6733 8.24981C20.0318 7.8721 20.5248 7.65106 21.0453 7.63467C21.5654 7.62422 22.0688 7.81922 22.4462 8.17737C22.8235 8.53553 23.0445 9.02799 23.0613 9.548C23.0613 9.70933 23.0506 9.86933 23.0159 10.02L28.7226 14.1653C29.2492 13.6584 29.8791 13.2714 30.5693 13.0307C31.7955 12.6212 33.1341 12.7144 34.2917 13.29ZM32.8502 15.8124C33.3204 16.0362 33.6826 16.4374 33.8573 16.928H33.8626C33.9629 17.2091 33.9981 17.5094 33.9656 17.8061C33.933 18.1028 33.8335 18.3882 33.6745 18.6409C33.5156 18.8935 33.3014 19.1068 33.048 19.2647C32.7947 19.4225 32.5088 19.5207 32.2119 19.552L30.0359 26.2667C30.6807 26.6129 31.2432 27.0941 31.6853 27.6773C33.2906 29.8307 32.8306 32.8893 30.6773 34.4933C28.5226 36.0973 25.4626 35.6387 23.8559 33.484L25.0919 32.5693C25.6209 33.2776 26.4089 33.7475 27.2835 33.8762C28.1581 34.0049 29.048 33.7819 29.7586 33.256C30.4665 32.7277 30.9364 31.9406 31.0653 31.0667C31.1942 30.1929 30.9718 29.3035 30.4466 28.5933C30.4277 28.5699 30.4092 28.5461 30.3906 28.5224C30.3387 28.4559 30.2869 28.3897 30.2279 28.3307C30.206 28.297 30.1765 28.2735 30.1504 28.2526L30.1479 28.2507C30.1303 28.2326 30.1138 28.2147 30.0978 28.1973C30.0616 28.158 30.0277 28.1211 29.9879 28.0907C29.9702 28.0789 29.9532 28.0645 29.9364 28.0504C29.9191 28.0358 29.9022 28.0215 29.8853 28.0107C29.8407 27.9617 29.7901 27.9187 29.7346 27.8827C29.7109 27.8598 29.6821 27.842 29.6552 27.8253C29.6428 27.8177 29.6309 27.8102 29.6199 27.8027C29.6082 27.7965 29.5965 27.7885 29.5846 27.7804C29.5735 27.7728 29.5622 27.7651 29.5506 27.7587C29.5279 27.7347 29.5053 27.7147 29.4706 27.7013C29.4523 27.6914 29.4354 27.6816 29.4188 27.672C29.3953 27.6585 29.3723 27.6453 29.3466 27.632C29.3146 27.6197 29.2858 27.6037 29.2576 27.5881C29.234 27.5751 29.2109 27.5623 29.1866 27.552C29.1649 27.5408 29.1425 27.5322 29.1198 27.5235C29.0966 27.5146 29.0729 27.5055 29.0493 27.4933L28.8893 27.4267C28.8556 27.4098 28.8212 27.4003 28.7876 27.3911C28.7761 27.3879 28.7646 27.3848 28.7533 27.3813C28.7211 27.3747 28.6893 27.3654 28.6577 27.356C28.6317 27.3483 28.6058 27.3407 28.5799 27.3347C28.5668 27.3316 28.5536 27.3286 28.5402 27.3256C28.5076 27.3183 28.4744 27.3108 28.4413 27.3013C28.4226 27.2949 28.4039 27.2919 28.3847 27.2888C28.3684 27.2862 28.3518 27.2836 28.3346 27.2787C28.3119 27.2653 28.2999 27.2653 28.2773 27.2653C28.2584 27.2653 28.2124 27.255 28.1707 27.2456C28.136 27.2378 28.1042 27.2307 28.0933 27.2307L28.5866 25.7187L30.7413 19.084C30.4773 18.8653 30.2826 18.5907 30.1573 18.248C30.0306 17.892 30.0213 17.5253 30.0879 17.1813C30.1919 16.668 30.5119 16.2067 30.9706 15.9213C31.09 15.8462 31.2169 15.7836 31.3493 15.7347C31.8401 15.5607 32.3799 15.5887 32.8502 15.8124ZM28.4882 28.603C28.7956 28.7335 29.0638 28.9415 29.2666 29.2067L29.2653 29.204C29.9293 30.0627 29.7693 31.3 28.9559 31.9773C28.7198 32.1591 28.4456 32.2851 28.1538 32.3457C27.862 32.4063 27.5603 32.3999 27.2714 32.3272C26.9824 32.2544 26.7136 32.1171 26.4853 31.9256C26.2571 31.7341 26.0751 31.4933 25.9533 31.2213H18.8946C18.7559 31.9307 18.4813 32.6307 18.0573 33.224C17.308 34.2762 16.1716 34.988 14.8979 35.203C13.6241 35.418 12.3171 35.1186 11.2639 34.3707C10.2119 33.6209 9.50034 32.4843 9.28536 31.2105C9.07038 29.9366 9.36957 28.6295 10.1173 27.576L11.3666 28.4693C11.1123 28.826 10.9307 29.2292 10.8323 29.656C10.7338 30.0829 10.7204 30.5249 10.7929 30.9569C10.8653 31.3889 11.0221 31.8024 11.2544 32.1738C11.4867 32.5452 11.7899 32.8672 12.1466 33.1213C12.867 33.6346 13.7616 33.8411 14.6341 33.6953C15.5065 33.5496 16.2855 33.0636 16.7999 32.344C16.8669 32.2522 16.9284 32.1565 16.9839 32.0573L16.9854 32.053C16.9968 32.0187 17.0075 31.9867 17.0279 31.9547C17.0641 31.8908 17.0983 31.8259 17.1306 31.76C17.137 31.7372 17.1457 31.7159 17.1545 31.6945C17.1621 31.6759 17.1697 31.6572 17.1759 31.6373C17.1884 31.6061 17.2006 31.5723 17.2125 31.539C17.2235 31.5084 17.2344 31.4781 17.2453 31.4507C17.2496 31.4344 17.2535 31.4178 17.2575 31.4014C17.2645 31.3719 17.2714 31.343 17.2799 31.3173C17.2845 31.306 17.2871 31.2932 17.2896 31.2808C17.293 31.2641 17.2963 31.2481 17.3039 31.2373C17.3075 31.222 17.3097 31.2076 17.3118 31.1938C17.3152 31.1717 17.3184 31.1512 17.3266 31.1307C17.3324 31.1069 17.335 31.0824 17.3377 31.0575C17.34 31.0363 17.3423 31.0148 17.3466 30.9933C17.3466 30.9266 17.3594 30.8702 17.3725 30.8126L17.3733 30.8093C17.3733 30.7799 17.377 30.7533 17.3805 30.7282C17.3836 30.7056 17.3866 30.6841 17.3866 30.6627C17.3866 30.6332 17.39 30.604 17.3933 30.575C17.3966 30.5463 17.3999 30.5178 17.3999 30.4893V30.34C17.3866 30.284 17.3866 30.2267 17.3866 30.1693C17.3866 30.1399 17.384 30.1126 17.3816 30.0868C17.3794 30.0635 17.3773 30.0415 17.3773 30.02C17.3773 30.0027 17.3739 29.9853 17.3706 29.968C17.3673 29.9507 17.3639 29.9333 17.3639 29.916C17.3506 29.8933 17.3506 29.8827 17.3506 29.8587C17.3373 29.836 17.3239 29.6987 17.3239 29.676H25.8959C26.0226 29.3667 26.2293 29.08 26.5159 28.8627C26.8012 28.6331 27.1484 28.4938 27.5133 28.4627C27.8449 28.4243 28.1809 28.4726 28.4882 28.603Z" fill="#D9D9D9" fill-opacity="0.5"/>
</svg>
