<svg width="42" height="41" viewBox="0 0 42 41" fill="none" xmlns="http://www.w3.org/2000/svg">
<path d="M13.0554 21C13.0554 19.2205 14.4981 17.7778 16.2777 17.7778H19.4999V24.2222H16.2777C14.4981 24.2222 13.0554 22.7795 13.0554 21Z" fill="#D9D9D9" fill-opacity="0.5"/>
<path d="M16.2777 14.7778H19.4999V8.33333H16.2777C14.4981 8.33333 13.0554 9.77597 13.0554 11.5556C13.0554 13.3351 14.4981 14.7778 16.2777 14.7778Z" fill="#D9D9D9" fill-opacity="0.5"/>
<path d="M22.4999 21C22.4999 19.2205 23.9425 17.7778 25.7222 17.7778C27.5017 17.7778 28.9443 19.2205 28.9443 21C28.9443 22.7795 27.5017 24.2222 25.7222 24.2222C23.9425 24.2222 22.4999 22.7795 22.4999 21Z" fill="#D9D9D9" fill-opacity="0.5"/>
<path fill-rule="evenodd" clip-rule="evenodd" d="M9 0C4.02944 0 0 4.02944 0 9V32C0 36.9706 4.02944 41 9 41H33C37.9706 41 42 36.9706 42 32V9C42 4.02944 37.9706 0 33 0H9ZM16.2777 5.33333C12.8412 5.33333 10.0554 8.11911 10.0554 11.5556C10.0554 13.4444 10.8971 15.1366 12.2258 16.2778C10.8971 17.4189 10.0554 19.1112 10.0554 21C10.0554 22.8888 10.8971 24.581 12.2258 25.7222C10.8971 26.8633 10.0554 28.5556 10.0554 30.4445C10.0554 33.8809 12.8412 36.6667 16.2777 36.6667C19.714 36.6667 22.4999 33.8809 22.4999 30.4445C22.4999 29.6161 21.8283 28.9445 20.9999 28.9445C20.1714 28.9445 19.4999 29.6161 19.4999 30.4445C19.4999 32.224 18.0572 33.6667 16.2777 33.6667C14.4981 33.6667 13.0554 32.224 13.0554 30.4445C13.0554 28.6648 14.4981 27.2222 16.2777 27.2222H20.9999C21.638 27.2222 22.1831 26.8237 22.3998 26.2619C23.3611 26.8701 24.5005 27.2222 25.7222 27.2222C29.1585 27.2222 31.9443 24.4364 31.9443 21C31.9443 19.1112 31.1027 17.4189 29.774 16.2778C31.1027 15.1366 31.9443 13.4444 31.9443 11.5556C31.9443 8.11911 29.1585 5.33333 25.7222 5.33333C24.8937 5.33333 24.2222 6.00491 24.2222 6.83333C24.2222 7.66176 24.8937 8.33333 25.7222 8.33333C27.5017 8.33333 28.9443 9.77596 28.9443 11.5556C28.9443 13.3351 27.5017 14.7778 25.7222 14.7778H22.4999V6.83333C22.4999 6.00491 21.8283 5.33333 20.9999 5.33333H16.2777Z" fill="#D9D9D9" fill-opacity="0.5"/>
</svg>
