<svg width="40" height="40" viewBox="0 0 40 40" fill="none" xmlns="http://www.w3.org/2000/svg">
<path fill-rule="evenodd" clip-rule="evenodd" d="M9.47159 0.964355C4.50103 0.964355 0.471588 4.9938 0.471588 9.96436V30.0358C0.471588 35.0063 4.50103 39.0358 9.4716 39.0358H30.5284C35.499 39.0358 39.5284 35.0063 39.5284 30.0358V9.96436C39.5284 4.99379 35.499 0.964355 30.5284 0.964355H9.47159ZM20 25.1073V29.7502C20 32.313 17.9174 34.393 15.3513 34.393C12.7852 34.393 10.7026 32.313 10.7026 29.7502C10.7026 27.1883 12.7836 25.1089 15.3483 25.1073C12.7836 25.1057 10.7026 23.0263 10.7026 20.4645C10.7026 17.9016 12.7852 15.8216 15.3513 15.8216H20L20 20.4645L20 25.1073ZM24.6487 15.8216C27.2148 15.8216 29.2974 17.9016 29.2974 20.4645C29.2974 23.0273 27.2148 25.1073 24.6487 25.1073C22.0826 25.1073 20 23.0273 20 20.4645C20 17.9016 22.0826 15.8216 24.6487 15.8216ZM24.6487 15.8216C27.2148 15.8216 29.2974 13.7416 29.2974 11.1787C29.2974 8.61589 27.2148 6.53589 24.6487 6.53589L20.0002 6.53589H15.3515C12.7854 6.53589 10.7028 8.61589 10.7028 11.1787C10.7028 13.7416 12.7852 15.8216 15.3513 15.8216H20L24.6487 15.8216Z" fill="#4F4F4F"/>
</svg>
