<svg width="42" height="41" viewBox="0 0 42 41" fill="none" xmlns="http://www.w3.org/2000/svg">
<path fill-rule="evenodd" clip-rule="evenodd" d="M9 0C4.02944 0 0 4.02944 0 9V32C0 36.9706 4.02944 41 9 41H33C37.9706 41 42 36.9706 42 32V9C42 4.02944 37.9706 0 33 0H9ZM13.7237 6.57582L10.7283 25.5914L18.2301 12.3247L15.0092 6.36082C14.9417 6.23478 14.8356 6.13298 14.706 6.06991C14.5765 6.00683 14.4301 5.9857 14.2877 6.00952C14.1452 6.03334 14.0141 6.1009 13.9128 6.20258C13.8115 6.30425 13.7453 6.43487 13.7237 6.57582ZM29.1477 12.706L32 30.2053L21.9613 35.7404C21.6544 35.9106 21.3083 36 20.9563 36C20.6043 36 20.2582 35.9106 19.9513 35.7404L10 30.2053L27.985 12.3372C28.0745 12.2496 28.1866 12.1879 28.3092 12.1589C28.4317 12.1299 28.56 12.1347 28.68 12.1727C28.8 12.2108 28.9071 12.2806 28.9896 12.3747C29.072 12.4687 29.1268 12.5833 29.1477 12.706ZM21.6079 10.5822L23.9131 14.9348L10.2723 28.4802L20.3921 10.5822C20.4502 10.4727 20.5376 10.3811 20.6448 10.3171C20.7519 10.2531 20.8748 10.2193 21 10.2193C21.1252 10.2193 21.2481 10.2531 21.3552 10.3171C21.4624 10.3811 21.5498 10.4727 21.6079 10.5822Z" fill="#D9D9D9" fill-opacity="0.5"/>
</svg>
