<svg width="42" height="41" viewBox="0 0 42 41" fill="none" xmlns="http://www.w3.org/2000/svg">
<path fill-rule="evenodd" clip-rule="evenodd" d="M9 0C4.02944 0 0 4.02944 0 9V32C0 36.9706 4.02944 41 9 41H33C37.9706 41 42 36.9706 42 32V9C42 4.02944 37.9706 0 33 0H9ZM15.3677 30.1919C15.5548 30.1919 15.7032 30.0894 15.7032 29.9612C15.7032 29.8137 15.5355 29.7112 15.3419 29.7304C15.1548 29.7304 15.0065 29.833 15.0065 29.9612C15.0065 30.1086 15.1548 30.2111 15.3677 30.1919ZM13.9742 29.9868C13.7806 29.9483 13.6516 29.8009 13.6968 29.6727C13.7419 29.5445 13.929 29.4804 14.0968 29.5253C14.2903 29.583 14.4129 29.7304 14.3742 29.8586C14.3355 29.9868 14.1419 30.0509 13.9742 29.9868ZM16.2516 29.8778C16.2323 29.7304 16.3613 29.6086 16.5484 29.5637C16.7355 29.5445 16.9097 29.6278 16.929 29.7496C16.9484 29.8778 16.8194 29.9996 16.6323 30.0445C16.4387 30.0894 16.271 30.006 16.2516 29.8778ZM5 20.6408C5 11.7499 11.8452 5 20.7935 5C29.7419 5 37 11.7499 37 20.6408C37 27.7496 32.6258 33.8329 26.1742 35.9611C25.3548 36.1085 25.0581 35.6021 25.0581 35.1854C25.0581 35.0118 25.0602 34.6038 25.063 34.0574C25.0687 32.9498 25.0774 31.2732 25.0774 29.8265C25.0774 28.3202 24.5742 27.3586 23.9806 26.8522C27.5871 26.4484 31.3871 25.9548 31.3871 19.769C31.3871 18.0126 30.7548 17.128 29.7226 15.9934C29.8903 15.5768 30.4387 13.8652 29.5548 11.6409C28.2065 11.2179 25.1032 13.3717 25.1032 13.3717C23.8129 13.0127 22.4258 12.8268 21.0516 12.8268C19.6774 12.8268 18.2903 13.0127 17 13.3717C17 13.3717 13.8968 11.2243 12.5484 11.6409C11.6645 13.8588 12.2129 15.5768 12.3806 15.9934C11.3484 17.1216 10.8581 18.0062 10.8581 19.769C10.8581 25.9356 14.4968 26.4548 18.1032 26.8522C17.6387 27.2753 17.2194 27.9868 17.071 29.0125C16.1484 29.4355 13.7806 30.147 12.3677 27.6727C11.4839 26.1471 9.87742 26.0189 9.87742 26.0189C8.29677 25.9997 9.77419 27.0061 9.77419 27.0061C10.8323 27.4868 11.5677 29.3522 11.5677 29.3522C12.5161 32.2239 17.0323 31.2624 17.0323 31.2624C17.0323 32.1346 17.0404 33.3621 17.0461 34.2263C17.0492 34.6959 17.0516 35.0583 17.0516 35.1983C17.0516 35.6149 16.7613 36.1213 15.9355 35.9739C9.50323 33.8329 5 27.7496 5 20.6408ZM11.3161 27.442C11.2065 27.3202 11.1871 27.1727 11.271 27.1086C11.3548 27.0253 11.5032 27.0702 11.6065 27.1727C11.7161 27.2945 11.7355 27.442 11.6516 27.5061C11.5677 27.5894 11.4194 27.5445 11.3161 27.442ZM10.7226 26.8394C10.5935 26.7753 10.529 26.6727 10.5742 26.5894C10.6194 26.5253 10.7226 26.5061 10.8516 26.5445C10.9806 26.6086 11.0452 26.7112 11 26.7945C10.9548 26.8843 10.8258 26.9035 10.7226 26.8394ZM12.7484 29.2689C12.6 29.1471 12.5613 28.9548 12.6645 28.8714C12.7484 28.7689 12.9419 28.7881 13.0839 28.9355C13.2129 29.0573 13.2516 29.2496 13.1677 29.333C13.0839 29.4355 12.8968 29.4163 12.7484 29.2689ZM11.929 28.3073C11.8258 28.1599 11.8258 27.9932 11.929 27.9291C12.0323 27.8458 12.2 27.9099 12.2903 28.0573C12.3935 28.2048 12.3935 28.3714 12.2903 28.4548C12.2065 28.5189 12.0323 28.4548 11.929 28.3073Z" fill="#D9D9D9" fill-opacity="0.5"/>
</svg>
