<svg width="42" height="41" viewBox="0 0 42 41" fill="none" xmlns="http://www.w3.org/2000/svg">
<path fill-rule="evenodd" clip-rule="evenodd" d="M9 0C4.02944 0 0 4.02944 0 9V32C0 36.9706 4.02944 41 9 41H33C37.9706 41 42 36.9706 42 32V9C42 4.02944 37.9706 0 33 0H9ZM18.8178 8.08276L18.821 8.07966L18.841 8.02928C18.8332 8.04707 18.8255 8.0649 18.8178 8.08276ZM18.8178 8.08276L6.842 19.6853C6.627 19.8936 6.494 20.1813 6.494 20.499C6.494 20.8168 6.627 21.1045 6.842 21.3128C8.92517 23.3249 11.0058 25.3451 13.0861 27.3649C15.7232 29.9254 18.3597 32.4853 21 35.0274C22.35 33.7167 23.185 31.908 23.185 29.9104C23.185 27.8644 22.31 26.017 20.902 24.6995L16.564 20.4981L20.563 16.624C19.104 15.2058 18.202 13.2489 18.202 11.0876C18.202 10.0232 18.4205 9.00813 18.8178 8.08276ZM18.816 11.0915C18.816 9.092 19.652 7.28237 21.005 5.97262L35.16 19.6843C35.375 19.8926 35.508 20.1803 35.508 20.4981C35.508 20.8158 35.375 21.1035 35.16 21.3118L23.2098 32.8886C23.5948 31.9727 23.807 30.9711 23.807 29.9211C23.807 27.754 22.903 25.7923 21.441 24.3692L25.436 20.4981L21.168 16.3625C19.72 15.043 18.816 13.1695 18.816 11.0915ZM23.2098 32.8886L23.206 32.8923L23.186 32.9446C23.194 32.9259 23.2019 32.9073 23.2098 32.8886Z" fill="#D9D9D9" fill-opacity="0.5"/>
</svg>
