<svg width="42" height="41" viewBox="0 0 42 41" fill="none" xmlns="http://www.w3.org/2000/svg">
<path d="M23.1049 33.8264C26.0113 36.362 28.7282 37.3628 29.9668 36.6475C31.2851 35.8854 31.7978 32.8125 30.9693 28.7823C30.9146 28.5198 30.8555 28.2581 30.7921 27.9973C29.0576 28.3918 27.2988 28.6702 25.5273 28.8307C24.513 30.2918 23.4011 31.6826 22.1993 32.9938C22.4935 33.2793 22.7948 33.5568 23.1033 33.8264H23.1049Z" fill="#D9D9D9" fill-opacity="0.5"/>
<path d="M12.9388 19.0107C13.2948 18.3217 13.667 17.6411 14.0552 16.969C14.4506 16.2832 14.8627 15.6075 15.2914 14.942C14.0725 15.0745 12.8612 15.2697 11.6624 15.5269C12.0102 16.6523 12.4384 17.8213 12.9388 19.0107Z" fill="#D9D9D9" fill-opacity="0.5"/>
<path d="M11.6878 26.3903C12.0296 25.2853 12.446 24.1411 12.9377 22.9779C13.2933 23.6656 13.6642 24.345 14.0503 25.0163C14.437 25.6884 14.8395 26.3509 15.2578 27.0039C14.0093 26.848 12.8116 26.6421 11.6878 26.3903Z" fill="#D9D9D9" fill-opacity="0.5"/>
<path fill-rule="evenodd" clip-rule="evenodd" d="M13.8329 20.9926C14.3514 22.0738 14.9097 23.1342 15.508 24.1738C16.1057 25.2129 16.742 26.2281 17.4169 27.2196C18.5883 27.3082 19.7892 27.355 21.0025 27.355C22.2157 27.355 23.424 27.3082 24.5946 27.2188C25.2623 26.2295 25.8948 25.2178 26.492 24.1836C27.0892 23.1495 27.6549 22.094 28.1892 21.0172C27.662 19.9322 27.0977 18.8675 26.4961 17.8229C25.8995 16.7839 25.2705 15.7656 24.6094 14.7681C23.4404 14.6861 22.2305 14.6409 21 14.6409C19.7695 14.6409 18.5825 14.6795 17.4349 14.7541C16.7552 15.7489 16.1137 16.7686 15.5105 17.8131C14.9073 18.8576 14.3473 19.9175 13.8305 20.9926H13.8329ZM22.9628 18.0984C22.3812 17.7122 21.6981 17.5073 21 17.5096C20.5375 17.5101 20.0796 17.6018 19.6525 17.7794C19.2255 17.957 18.8376 18.217 18.5111 18.5446C18.1845 18.8722 17.9258 19.2609 17.7496 19.6886C17.5734 20.1162 17.4832 20.5744 17.4841 21.0369C17.4841 21.735 17.6913 22.4175 18.0794 22.9978C18.4675 23.5781 19.0191 24.0302 19.6643 24.2968C20.3095 24.5635 21.0193 24.6327 21.7039 24.4956C22.3884 24.3586 23.0169 24.0215 23.5098 23.527C24.0026 23.0326 24.3376 22.403 24.4724 21.718C24.6073 21.033 24.5358 20.3234 24.267 19.6791C23.9983 19.0347 23.5444 18.4846 22.9628 18.0984Z" fill="#D9D9D9" fill-opacity="0.5"/>
<path d="M27.9521 16.9805C28.3486 17.6684 28.7293 18.3654 29.094 19.0714C29.594 17.9377 30.0354 16.779 30.4164 15.5999C29.2034 15.3268 27.977 15.1173 26.7422 14.9723C27.1589 15.6335 27.5622 16.3029 27.9521 16.9805Z" fill="#D9D9D9" fill-opacity="0.5"/>
<path d="M29.0776 22.9745C28.7145 23.6663 28.3369 24.3499 27.9448 25.0253C27.562 25.6914 27.163 26.3493 26.7479 26.9989C28.0038 26.8398 29.2089 26.6282 30.3384 26.3698C29.9753 25.2176 29.5545 24.0844 29.0776 22.9745Z" fill="#D9D9D9" fill-opacity="0.5"/>
<path d="M21.0189 31.7887C21.838 30.8937 22.6114 29.9579 23.3363 28.9849C21.7859 29.0587 20.2344 29.0587 18.6818 28.9849C19.4471 29.9972 20.2305 30.9364 21.0189 31.7887Z" fill="#D9D9D9" fill-opacity="0.5"/>
<path d="M11.9487 36.5974C13.2661 37.362 16.179 36.2693 19.2495 33.5401C19.4455 33.3654 19.6432 33.1825 19.8401 32.993C18.6321 31.682 17.5123 30.2924 16.4883 28.8332C14.7207 28.6739 12.9654 28.3999 11.2334 28.0129C11.1333 28.4154 11.043 28.8206 10.9627 29.2286C10.2203 33.0209 10.7116 35.8796 11.9487 36.5974Z" fill="#D9D9D9" fill-opacity="0.5"/>
<path d="M10.0283 15.9379C9.7002 16.0314 9.37617 16.1328 9.05625 16.2422C7.13672 16.8984 5.55105 17.7548 4.4625 18.6875C3.48797 19.5234 2.99414 20.3577 2.99414 21.0336C2.99414 22.47 5.13188 24.3026 8.69695 25.5454C9.14484 25.7012 9.59656 25.8437 10.0521 25.9727C10.5816 24.2712 11.2228 22.6064 11.9716 20.9893C11.2139 19.3499 10.5647 17.6624 10.0283 15.9379Z" fill="#D9D9D9" fill-opacity="0.5"/>
<path d="M19.1445 8.25398C17.6162 6.91523 16.0855 5.96613 14.7361 5.48789C13.5237 5.05887 12.5582 5.04656 11.9749 5.38371C10.733 6.10148 10.2162 8.87332 10.9208 12.591C11.0045 13.0285 11.1002 13.466 11.2079 13.9035C12.9573 13.5266 14.7302 13.2693 16.5145 13.1332C17.5486 11.6664 18.6776 10.2689 19.8942 8.94961C19.6498 8.70926 19.3996 8.47793 19.1445 8.25398Z" fill="#D9D9D9" fill-opacity="0.5"/>
<path d="M21.0656 10.1587C20.2683 11.0209 19.4726 11.9749 18.6966 13.0003C19.4507 12.9708 20.2185 12.956 21 12.956C21.8023 12.956 22.5963 12.9732 23.3789 13.0085C22.6567 12.0199 21.8846 11.0688 21.0656 10.1587Z" fill="#D9D9D9" fill-opacity="0.5"/>
<path d="M31.2802 7.81348C31.0455 6.54691 30.5739 5.70199 29.9906 5.36402C28.7495 4.64379 26.0958 5.57976 23.2345 8.04808C22.9064 8.33027 22.5783 8.63297 22.2444 8.95043C23.4374 10.2748 24.5399 11.678 25.5445 13.1504C27.3387 13.3024 29.1203 13.5779 30.8766 13.9748C30.957 13.65 31.028 13.3317 31.0898 13.02C31.4844 11.0266 31.541 9.22359 31.2802 7.81348Z" fill="#D9D9D9" fill-opacity="0.5"/>
<path d="M32.7075 16.2332C32.4926 16.1618 32.2711 16.0929 32.0463 16.0256C31.4956 17.7352 30.8294 19.4054 30.0521 21.0246C30.8002 22.6222 31.4404 24.2682 31.9684 25.9514C32.3712 25.8341 32.7625 25.7111 33.139 25.5806C36.7828 24.3239 39.0059 22.4634 39.0059 21.0336C39.0059 19.5079 36.6048 17.5276 32.7075 16.2332Z" fill="#D9D9D9" fill-opacity="0.5"/>
<path fill-rule="evenodd" clip-rule="evenodd" d="M0 9C0 4.02944 4.02944 0 9 0H33C37.9706 0 42 4.02944 42 9V32C42 36.9706 37.9706 41 33 41H9C4.02944 41 0 36.9706 0 32V9ZM33.687 27.1753C33.2675 27.3186 32.845 27.452 32.4196 27.5756C32.4901 27.8627 32.5552 28.1515 32.6148 28.4419C33.5746 33.1095 32.947 36.8698 30.8052 38.1076C28.7544 39.2954 25.3911 38.0576 21.9983 35.0979C21.6647 34.8059 21.338 34.5051 21.018 34.1955C20.8048 34.4012 20.586 34.6024 20.3618 34.7993C16.8057 37.9641 13.2415 39.2971 11.1021 38.0551C9.05133 36.8648 8.44184 33.3301 9.30562 28.9062C9.39203 28.4687 9.4891 28.0331 9.59684 27.5994C9.09234 27.4559 8.60508 27.3025 8.13914 27.14C3.97523 25.684 1.3125 23.4011 1.3125 21.0336C1.3125 18.5875 4.17047 16.1347 8.51238 14.6475C8.86457 14.5277 9.22004 14.4164 9.57879 14.3136C9.4623 13.8493 9.35922 13.3798 9.26953 12.9052C8.44922 8.5575 9.08906 5.10644 11.1357 3.92355C13.2497 2.70211 16.7959 3.95719 20.2527 6.98414C20.5261 7.22367 20.7996 7.4766 21.073 7.74293C21.4186 7.40879 21.7741 7.08449 22.1394 6.77004C25.4863 3.88418 28.7913 2.71851 30.8347 3.90469C32.947 5.13023 33.6336 8.83805 32.742 13.3489C32.6736 13.6935 32.5948 14.0451 32.5057 14.4039C32.7551 14.4777 32.9993 14.554 33.2382 14.6327C37.75 16.1314 40.6891 18.5546 40.6891 21.0312C40.6875 23.4101 37.9395 25.7078 33.687 27.1753Z" fill="#D9D9D9" fill-opacity="0.5"/>
</svg>
