<svg width="42" height="41" viewBox="0 0 42 41" fill="none" xmlns="http://www.w3.org/2000/svg">
<path fill-rule="evenodd" clip-rule="evenodd" d="M9 0C4.02944 0 0 4.02944 0 9V32C0 36.9706 4.02944 41 9 41H33C37.9706 41 42 36.9706 42 32V9C42 4.02944 37.9706 0 33 0H9ZM34.1804 25.9141C34.1606 25.9931 34.1408 26.0723 34.1012 26.1515L34.1024 26.1565C37.9885 30.9178 36.9572 36.0744 36.4031 34.9638C34.3404 31.0021 30.6105 32.031 28.7065 32.983H28.7078C28.573 33.1114 28.4156 33.2184 28.2318 33.3003H28.1594C25.9518 34.3733 23.4726 34.9751 20.8525 34.9751C18.1967 34.9751 15.6858 34.3556 13.5539 33.299L13.4027 33.2399C9.14654 31.3793 5.54853 28.2904 3.00245 24.3294C4.19306 25.2208 5.47573 25.9997 6.96541 26.7056C12.6787 29.3248 18.3126 29.1674 22.3586 26.7056L22.2113 26.5897C17.0396 22.3683 12.3951 17.5242 8.24115 11.9582C7.55136 11.1694 6.92847 10.3194 6.33544 9.33894C10.5091 13.0855 14.9881 16.5052 20.1363 19.8034C16.683 16.1306 13.5159 12.182 10.4599 7.66682L10.4737 7.68067C15.1959 12.4835 20.4143 16.7977 26.4046 20.7631L26.3807 20.748C26.5809 20.889 26.7887 21.02 27.0405 21.1598L27.0216 21.2114C27.1916 20.8034 27.3276 20.3778 27.4372 19.8867L27.4158 20.0063C27.6739 18.7836 27.8099 17.5167 27.8099 16.2172C27.8099 11.9193 26.324 7.9703 23.8659 4.89015C31.6406 9.49148 36.1638 18.2181 34.2598 25.6767C34.2201 25.7556 34.2003 25.8348 34.1804 25.9141ZM6.33544 9.33894L6.33326 9.33533L6.23756 9.25096C6.27017 9.28031 6.3028 9.30964 6.33544 9.33894ZM3.00245 24.3294L3 24.3256L2.94207 24.284C2.96217 24.2992 2.9823 24.3143 3.00245 24.3294Z" fill="#D9D9D9" fill-opacity="0.5"/>
</svg>
