<svg width="42" height="41" viewBox="0 0 42 41" fill="none" xmlns="http://www.w3.org/2000/svg">
<path fill-rule="evenodd" clip-rule="evenodd" d="M9.93091 2.44836H32.0688C35.9348 2.44836 39.0688 5.58237 39.0688 9.44836V31.5863C39.0688 35.4523 35.9348 38.5863 32.0688 38.5863H9.93091C6.06491 38.5863 2.93091 35.4523 2.93091 31.5863V9.44836C2.93091 5.58237 6.06492 2.44836 9.93091 2.44836ZM20.6679 5.3663C21.043 5.35458 21.159 5.57735 21.3711 5.98485L21.4143 6.06747C21.6554 6.52733 22.3802 9.22845 22.6215 11.4008C22.8628 13.5732 22.3804 20.5962 22.1387 21.5387C21.8976 22.0444 21.5956 22.2497 21.1958 22.2621C20.7961 22.2746 20.4102 21.8516 20.2076 21.5387C19.7244 20.7923 19.2309 18.3424 19.0008 16.228C18.596 12.5105 19.4834 6.57317 19.4834 6.57317C19.4834 6.57317 19.4834 6.33174 19.7249 5.84905C19.9561 5.38691 20.2425 5.37863 20.6173 5.3678L20.6679 5.3663ZM20.5738 23.5636C20.8204 23.176 20.9552 22.964 20.7574 22.6452L20.7308 22.6022C20.5338 22.2831 20.3833 22.0393 19.8675 22.0704C19.3288 22.1029 19.1197 22.2237 19.1197 22.2237C19.1197 22.2237 13.5353 24.4267 10.5194 26.6376C8.80402 27.895 6.92992 29.5483 6.52552 30.3402C6.35602 30.6721 6.18288 31.218 6.39374 31.5578C6.6046 31.8976 6.93342 32.0564 7.49192 32.012C8.42889 31.7496 14.7506 28.6525 16.5106 27.3565C18.2706 26.0604 20.2464 24.0812 20.5238 23.6423L20.5738 23.5636ZM21.1652 23.1236C21.3401 22.7915 21.5911 22.8006 22.0502 22.8171L22.1433 22.8204C22.6623 22.8375 25.3693 23.5401 27.3778 24.4023C29.3863 25.2645 35.2565 29.1497 35.9571 29.8251C36.278 30.2843 36.3074 30.6483 36.121 31.0021C35.9346 31.356 35.3761 31.4829 35.0041 31.5046C34.1165 31.5565 31.7421 30.7768 29.7895 29.9336C26.3565 28.4511 21.6304 24.7493 21.6304 24.7493C21.6304 24.7493 21.4204 24.6302 21.1197 24.1819C20.8319 23.7528 20.966 23.4996 21.1415 23.1682L21.1652 23.1236Z" fill="#6F6F6F"/>
<path fill-rule="evenodd" clip-rule="evenodd" d="M0 9C0 4.02944 4.02944 0 9 0H33C37.9706 0 42 4.02944 42 9V32C42 36.9706 37.9706 41 33 41H9C4.02944 41 0 36.9706 0 32V9ZM1.93091 9.44836C1.93091 5.03009 5.51263 1.44836 9.93091 1.44836H32.0688C36.4871 1.44836 40.0688 5.03009 40.0688 9.44836V31.5863C40.0688 36.0046 36.4871 39.5863 32.0688 39.5863H9.93091C5.51263 39.5863 1.93091 36.0046 1.93091 31.5863V9.44836Z" fill="#6F6F6F"/>
</svg>
