<svg width="42" height="42" viewBox="0 0 42 42" fill="none" xmlns="http://www.w3.org/2000/svg">
<path d="M21.0806 16.9392L16.931 24.2H25.1568L21.0806 16.9392Z" fill="#4F4F4F"/>
<path fill-rule="evenodd" clip-rule="evenodd" d="M32.4 2.4H9.6C5.62355 2.4 2.4 5.62355 2.4 9.6V32.4C2.4 36.3764 5.62355 39.6 9.6 39.6H32.4C36.3764 39.6 39.6 36.3764 39.6 32.4V9.6C39.6 5.62355 36.3764 2.4 32.4 2.4ZM24.9364 10.1924C25.4297 9.32926 25.1299 8.2297 24.2668 7.73643C23.4037 7.24317 22.3041 7.54297 21.8108 8.40608L21.1085 9.63504L20.3696 8.31884C19.8829 7.45199 18.7857 7.14378 17.9188 7.63043C17.052 8.11708 16.7438 9.21431 17.2304 10.0812L19.0258 13.2792L12.7845 24.2H8C7.00589 24.2 6.2 25.0059 6.2 26C6.2 26.9941 7.00589 27.8 8 27.8H10.7271L9.5 30L8.83721 31.1069C8.34395 31.97 8.64376 33.0695 9.50686 33.5628C10.37 34.0561 11.4695 33.7562 11.9628 32.8931L14.8735 27.8H27.1778L30.0304 32.8812C30.5171 33.748 31.6143 34.0562 32.4812 33.5696C33.348 33.0829 33.6562 31.9857 33.1696 31.1188L31.3064 27.8H34C34.9941 27.8 35.8 26.9941 35.8 26C35.8 25.0059 34.9941 24.2 34 24.2H29.2853L23.1632 13.295L24.9364 10.1924Z" fill="#4F4F4F"/>
<path fill-rule="evenodd" clip-rule="evenodd" d="M0 9.2C0 4.11898 4.11898 0 9.2 0H32.8C37.881 0 42 4.11898 42 9.2V32.8C42 37.881 37.881 42 32.8 42H9.2C4.11898 42 0 37.881 0 32.8V9.2ZM9.6 1.2C4.96081 1.2 1.2 4.96081 1.2 9.6V32.4C1.2 37.0392 4.96081 40.8 9.6 40.8H32.4C37.0392 40.8 40.8 37.0392 40.8 32.4V9.6C40.8 4.96081 37.0392 1.2 32.4 1.2H9.6Z" fill="#4F4F4F"/>
<path d="M23.1632 13.295L21.0806 16.9392C21.0806 16.9392 23.7057 21.6184 22.5 19.5C21.2943 17.3816 23.796 14.4222 23.796 14.4222L23.1632 13.295Z" fill="#4F4F4F"/>
<path d="M14.8735 27.8H10.7271L9.5 30C10.7178 28.0466 14.3599 28.6987 14.3599 28.6987L14.8735 27.8Z" fill="#4F4F4F"/>
</svg>
