<svg width="1512" height="992" viewBox="0 0 1512 992" fill="none" xmlns="http://www.w3.org/2000/svg">
<g clip-path="url(#clip0_915_931)">
<path d="M99.0675 -436.021C160.965 -365.111 232.391 -303.295 317.835 -277.852C352.721 -267.472 388.474 -262.88 422.888 -249.929C458.876 -236.335 492.109 -215.576 521.876 -188.388C583.065 -132.726 628.189 -54.8354 694.575 -6.52135C722.295 13.5942 755.606 27.5557 787.343 36.4653C801.281 40.4149 815.929 42.0683 829.159 34.3527C848.846 22.9631 861.131 2.11274 883.181 -5.41911C920.588 -18.1865 965.081 -6.88874 1001.23 6.15422C1033.28 17.7276 1054.62 37.1083 1072.02 70.0831C1087.62 99.4757 1104.47 123.173 1132.98 135.665C1159.59 147.33 1180.7 146.045 1206.21 130.889C1244.64 108.11 1278.74 75.2268 1313.63 46.1098C1355.13 11.4816 1397.66 -22.5954 1444.28 -47.3036C1486.96 -69.8991 1531.84 -85.2384 1576.73 -63.6532C1577.13 -67.511 1577.36 -69.348 1577.91 -72.7465C1534.29 -93.1376 1488.61 -77.7984 1447.43 -55.9376C1400.96 -31.2295 1358.75 3.3068 1317.8 38.4861C1282.92 68.3379 1249.05 101.956 1210.7 125.929C1184.95 142.003 1163.77 144.391 1136.52 132.542C1106.75 119.499 1089.74 95.0668 1073.52 64.3883C1056.35 31.9646 1033.67 13.6861 1002.33 2.84755C965.948 -9.73615 921.218 -21.3095 883.654 -8.26653C861.998 -0.734675 850.342 20.1157 830.97 31.2298C817.897 38.6698 803.329 36.2816 789.784 32.0564C757.89 22.0446 725.13 6.79717 697.331 -13.8695C630.236 -63.745 583.223 -141.544 519.75 -196.747C489.589 -223.2 455.963 -243.132 419.738 -255.991C385.403 -268.115 349.808 -272.249 315.079 -282.261C230.816 -306.693 160.886 -369.979 100.958 -440.797C100.17 -438.868 99.7763 -437.949 99.0675 -436.021Z" fill="url(#paint0_linear_915_931)" fill-opacity="0.1"/>
<path d="M93.2401 -418.385C161.989 -348.21 239.4 -289.425 328.545 -261.686C363.904 -250.664 399.893 -244.234 434.228 -228.435C468.956 -212.453 500.22 -188.847 527.704 -159.455C581.254 -102.323 618.739 -26.1776 684.495 13.9616C712.845 31.2298 744.581 43.5379 776.16 49.6001C791.359 52.5394 806.636 52.2638 820.733 44.2727C841.68 32.4238 856.721 12.4001 880.11 5.51124C917.123 -5.41913 960.435 5.32753 995.558 20.0238C1028.32 33.7097 1046.27 56.8564 1065.49 89.372C1080.29 114.356 1094.23 135.39 1119.27 146.871C1143.37 157.985 1165.11 160.373 1189.6 149.168C1228.5 131.256 1263.62 101.129 1298.59 74.9512C1341.9 42.5275 1385.76 10.2875 1432.86 -14.2369C1481.45 -39.6799 1526.18 -45.9258 1575.47 -19.2888C1575.39 -24.6162 1575.39 -27.0962 1575.39 -32.0562C1479.95 -82.1154 1379.31 7.99127 1302.29 67.4194C1267.32 94.4239 1232.52 125.194 1193.77 144.483C1168.97 156.791 1147.47 155.23 1122.74 144.024C1096.91 132.359 1082.18 110.773 1067.14 84.6875C1048.16 51.6209 1030.29 29.5764 997.133 16.1661C961.774 2.02088 918.068 -8.81765 880.976 2.75568C857.903 9.92013 843.649 30.1275 823.016 42.0683C809.235 50.0594 794.115 49.9675 779.231 46.7527C747.338 40.0475 715.286 27.1883 686.779 9.55272C621.023 -31.0458 581.254 -110.314 526.365 -166.527C498.173 -195.369 466.436 -218.424 431.314 -233.763C396.979 -248.827 360.99 -254.797 325.71 -265.727C237.51 -293.007 161.595 -352.344 94.5001 -422.794C93.9489 -421.049 93.7126 -420.13 93.2401 -418.385Z" fill="url(#paint1_linear_915_931)" fill-opacity="0.15"/>
<path d="M89.2238 -401.301C163.721 -333.055 246.015 -276.566 337.759 -246.255C375.244 -233.855 412.886 -226.139 448.245 -206.207C478.721 -189.031 505.496 -165.15 528.728 -136.492C551.486 -108.385 569.126 -75.5022 591.255 -47.0281C613.856 -18.0029 642.206 6.98076 671.974 25.0756C710.089 48.2222 766.474 71.6445 809.314 51.8963C831.679 41.6089 849.555 23.2385 873.653 17.4519C909.563 8.72596 949.725 19.5645 983.43 34.2608C1014.62 47.8548 1039.42 76.1452 1059.11 106.732C1072.97 128.225 1084.62 147.239 1106.59 157.985C1128.8 168.916 1151.17 174.059 1174.87 166.436C1214.25 153.852 1250.47 126.756 1285.67 103.425C1329.93 74.1245 1374.5 40.4149 1423.09 21.6771C1477.03 0.826703 1528.22 6.70522 1578.23 37.2C1577.76 31.046 1577.6 28.1067 1577.21 22.2282C1527.51 -7.1644 1476.8 -10.5629 1424.43 12.1245C1376.39 32.9749 1331.74 66.8682 1287.64 96.9956C1252.6 120.969 1216.53 148.892 1177.23 162.486C1153.61 170.661 1131.24 165.793 1108.88 154.77C1086.28 143.656 1074.15 123.908 1060.05 101.68C1041.31 72.1956 1019.58 45.283 989.73 31.7808C955.474 16.2578 913.736 5.14375 877.039 13.9615C852.862 19.6563 835.538 38.3941 813.488 49.6C771.75 70.8178 714.735 46.2934 677.408 24.1571C645.041 4.96002 614.014 -21.7689 591.176 -54.8355C571.174 -83.7689 552.195 -113.713 529.909 -140.441C504.551 -170.844 475.178 -196.012 441.866 -213.372C408.004 -231.007 372.015 -238.264 336.499 -249.745C244.991 -279.23 163.485 -336.545 90.0113 -405.526C89.775 -403.873 89.6175 -403.046 89.2238 -401.301Z" fill="url(#paint2_linear_915_931)" fill-opacity="0.2"/>
<path d="M86.2313 -384.584C165.848 -318.634 251.921 -264.166 345.634 -230.915C382.489 -217.872 419.816 -209.973 454.073 -188.388C483.683 -169.742 508.489 -143.748 529.279 -112.886C567.63 -55.9376 607.793 0.367614 664.571 33.618C704.655 57.0402 756.709 72.4713 800.809 55.8461C824.513 46.9365 845.539 32.3321 870.818 29.5765C906.806 25.6269 942.244 38.9454 974.689 55.5706C1003.91 70.5424 1031.23 90.3824 1051.39 119.591C1064.23 138.145 1073.52 156.883 1092.5 168.089C1113.37 180.489 1138.02 188.48 1161.33 184.531C1198.5 178.193 1234.09 156.516 1267.4 137.411C1316.78 109.212 1365.05 76.9721 1419.71 64.7558C1478.61 51.6209 1532.95 66.3172 1584.14 101.221C1583.43 94.7913 1583.11 91.5765 1582.4 85.2387C1531.53 51.4373 1477.82 38.8535 1420.1 53.8254C1366.47 67.7869 1318.83 101.037 1270.4 129.879C1237.16 149.627 1201.96 172.039 1164.87 179.938C1141.32 184.898 1116.83 177.55 1095.49 165.425C1075.96 154.311 1066.2 135.574 1053.2 116.468C1033.2 87.1676 1006.66 66.3172 977.76 50.6106C945.709 33.2506 907.83 21.4017 872.235 26.2698C847.193 29.6684 826.875 45.0995 803.565 54.6521C759.701 72.5632 706.703 55.5706 666.934 32.2402C608.029 -2.20424 570.78 -59.7954 530.145 -117.57C508.489 -148.432 482.895 -174.335 452.576 -192.889C418.005 -214.015 380.599 -221.914 343.586 -234.773C250.425 -267.289 165.296 -322.216 86.9401 -388.625C86.7038 -387.064 86.5463 -386.237 86.2313 -384.584Z" fill="url(#paint3_linear_915_931)" fill-opacity="0.3"/>
<path d="M83.4751 -367.866C168.919 -303.111 259.796 -249.561 356.895 -213.004C391.781 -199.869 427.849 -191.511 459.428 -168.915C486.754 -149.351 506.284 -120.969 527.389 -93.413C594.878 -5.51075 677.565 85.79 787.815 61.0819C813.724 55.2952 838.058 44.4567 864.833 45.0996C897.908 45.9263 930.904 60.6226 961.774 73.4819C992.329 86.2493 1023.67 102.599 1044.93 132.359C1057.61 150.086 1065.25 169.283 1082.97 181.408C1142.43 222.19 1201.96 196.38 1260.71 166.803C1312.76 140.626 1366.55 115.734 1423.8 111.692C1485.7 107.283 1541.22 130.338 1592.48 169.192C1591.62 162.762 1591.22 159.547 1590.44 153.209C1539.17 115.274 1483.97 94.1486 1422.86 100.486C1366.23 106.365 1313.55 132.634 1262.36 159.914C1204.8 190.593 1144.87 217.23 1085.57 178.469C1067.46 166.62 1059.35 147.606 1046.59 129.603C1025.48 99.8434 994.928 82.7589 964.451 69.5322C933.109 55.9382 900.428 40.9663 866.408 41.2419C839.869 41.5174 816.165 53.4581 790.65 59.9796C680.243 88.4537 593.224 -8.81739 527.389 -97.6381C506.441 -125.929 487.148 -153.484 459.191 -173.14C427.061 -195.644 390.915 -203.911 355.635 -216.954C258.773 -252.592 168.604 -306.509 84.1051 -371.816C83.8689 -370.254 83.7113 -369.428 83.4751 -367.866Z" fill="url(#paint4_linear_915_931)" fill-opacity="0.4"/>
<path d="M80.1675 -350.874C170.1 -287.955 264.285 -235.416 362.959 -194.266C393.277 -181.591 426.038 -172.865 453.6 -152.749C480.533 -133.093 504 -105.078 526.759 -79.4515C564.086 -37.4752 600.39 9.36921 646.616 38.3025C685.597 62.7351 730.8 70.0833 774.664 66.9603C801.754 65.0314 828.371 59.4285 855.54 64.0211C887.985 69.5322 921.611 78.0744 952.875 89.2803C983.351 100.119 1017.06 114.356 1038.16 143.748C1050.29 160.649 1056.27 181.04 1071.79 194.634C1089.35 210.066 1113.68 222.741 1135.26 226.874C1178.41 235.233 1224.09 208.596 1264.02 193.257C1315.91 173.325 1369.54 157.251 1424.59 159.547C1490.74 162.303 1548.38 192.797 1601.54 237.162C1600.67 231.1 1600.28 228.068 1599.41 221.914C1548.62 180.397 1493.26 151.556 1430.42 148.984C1372.38 146.596 1316.07 165.334 1261.89 187.654C1222.12 204.003 1179.12 228.895 1135.89 221.363C1114.86 217.689 1090.37 205.473 1073.05 190.593C1057.85 177.55 1051.63 158.077 1039.97 141.728C1018.32 111.233 983.587 96.4448 952.166 85.0551C922.477 74.3085 890.269 64.2048 859.399 59.704C831.521 55.5707 804.51 62.7351 776.869 65.6744C734.029 70.1751 689.141 62.6433 650.711 39.6803C601.492 10.1959 563.299 -39.7716 524.633 -84.6871C503.134 -109.671 481.635 -137.135 455.805 -156.056C427.849 -176.539 395.01 -185.081 364.061 -197.573C264.836 -237.712 170.572 -290.803 80.955 -354.548C80.7187 -353.17 80.5612 -352.343 80.1675 -350.874Z" fill="url(#paint5_linear_915_931)" fill-opacity="0.5"/>
<path d="M75.9938 -333.33C166.871 -273.902 260.899 -223.384 357.289 -177.274C418.241 -148.157 474.469 -120.326 525.499 -70.6339C563.141 -34.0769 597.161 9.4609 639.608 38.7616C677.644 65.0313 721.035 71.9201 764.505 75.3187C793.643 77.5231 821.52 82.575 850.343 86.892C881.055 91.4846 911.61 92.2194 941.771 101.405C973.35 110.957 1010.68 124.735 1032.26 155.322C1044.93 173.325 1049.66 196.196 1064.86 212.362C1081.95 230.456 1106.28 245.52 1129.04 249.286C1174.01 256.818 1224.17 232.11 1267.25 220.261C1323.24 204.83 1380.57 195.369 1437.9 205.932C1503.34 217.965 1559.17 255.073 1610.83 302.009C1610.12 296.498 1609.73 293.742 1608.94 288.231C1556.89 241.754 1500.35 205.932 1434.51 195.92C1376.79 187.102 1319.61 198.584 1263.78 215.393C1222.04 227.976 1171.96 253.971 1128.02 244.602C1106.44 240.009 1082.26 224.762 1065.72 207.585C1051.08 192.338 1046.19 170.661 1034.07 153.301C1012.73 122.622 975.87 108.845 944.449 98.9246C913.264 89.0964 881.528 87.9942 849.87 81.8402C821.835 76.329 794.981 74.492 766.553 73.2061C722.531 71.2772 678.589 64.2964 640.001 37.935C597.713 9.00162 563.771 -33.985 527.074 -71.0013C503.449 -94.791 478.643 -117.387 451.316 -135.206C422.258 -154.127 390.206 -166.619 359.336 -180.948C262.238 -225.955 167.895 -276.933 77.0175 -337.188C76.6238 -335.627 76.3875 -334.892 75.9938 -333.33Z" fill="url(#paint6_linear_915_931)" fill-opacity="0.6"/>
<path d="M70.4026 -315.144C161.123 -258.93 254.126 -208.044 347.681 -158.444C407.846 -126.572 470.768 -110.498 524.948 -64.2962C562.433 -32.3318 594.169 7.99118 632.284 38.8534C668.509 68.0623 709.065 77.6149 751.59 87.6267C782.066 94.7912 811.598 105.538 842.861 105.722C874.283 105.813 904.523 104.436 935.393 113.07C967.523 122.071 1006.27 136.859 1027.37 168.64C1040.6 188.572 1043.99 214.658 1059.27 233.212C1075.8 253.419 1106.75 262.145 1129.51 265.636C1176.13 272.708 1228.03 251.766 1273.78 243.683C1333.16 233.12 1393.48 231.191 1451.91 250.021C1515.23 270.412 1568.62 312.756 1618.39 361.437C1617.84 356.753 1617.53 354.365 1616.97 349.496C1566.89 301.182 1513.02 259.941 1449.32 241.111C1390.57 223.751 1330.32 227.425 1271.1 239.274C1225.98 248.276 1174.56 269.769 1128.33 262.696C1105.1 259.114 1076.67 248.919 1060.21 228.344C1045.41 209.973 1041.47 185.173 1028.48 165.793C1007.37 134.379 969.019 119.959 937.204 110.865C906.334 102.047 875.936 103.058 844.515 102.047C813.881 101.037 784.035 90.6579 753.874 84.5956C711.191 75.9616 670.163 67.2356 633.623 38.6697C594.72 8.26675 562.59 -32.5155 525.263 -65.2147C471.713 -112.151 409.736 -130.613 349.65 -162.67C256.016 -212.821 162.54 -262.237 71.7413 -319.093C71.1901 -317.532 70.9538 -316.705 70.4026 -315.144Z" fill="url(#paint7_linear_915_931)" fill-opacity="0.7"/>
<path d="M63.2363 -296.222C154.193 -241.938 245.464 -183.061 340.988 -140.533C402.334 -113.161 468.169 -103.425 523.845 -60.6222C561.645 -31.597 591.885 7.16443 626.535 40.7822C661.658 74.8593 700.639 89.3719 743.243 106.273C774.428 118.581 802.699 124.643 835.538 121.061C866.329 117.754 895.939 114.907 926.494 122.898C960.199 131.716 1000.44 148.341 1022.17 181.775C1036.98 204.462 1037.61 237.713 1059.82 252.96C1083.68 269.401 1117.54 272.249 1144.47 275.096C1193.3 280.24 1244.09 264.625 1292.84 261.319C1348.99 257.461 1405.37 263.339 1458.45 286.21C1521.37 313.307 1573.9 361.161 1623.43 412.69C1623.19 408.924 1623.04 406.996 1622.72 402.954C1572.8 351.517 1519.48 304.397 1455.85 278.77C1402.3 257.185 1345.68 252.868 1289.53 257.92C1241.18 262.237 1190.31 278.954 1141.72 273.719C1115.73 270.963 1081.4 266.83 1059.03 249.378C1038.63 233.487 1037.45 200.513 1023.04 178.652C1001.38 145.769 961.38 129.603 928.069 120.877C897.514 112.794 867.904 115.458 837.113 118.213C804.195 121.061 776.396 113.345 745.133 102.047C702.45 86.6163 662.996 73.2978 627.559 40.1393C592.358 7.2563 561.96 -31.597 524.396 -61.0815C469.193 -104.344 404.145 -115.274 343.193 -143.289C247.748 -187.194 155.925 -245.428 64.8113 -300.172C64.1813 -298.61 63.8663 -297.784 63.2363 -296.222Z" fill="url(#paint8_linear_915_931)" fill-opacity="0.9"/>
<path d="M54.2588 -276.474C144.27 -223.567 232.943 -165.884 329.175 -129.511C392.569 -105.537 461.79 -100.302 519.75 -59.7033C560.306 -31.413 590.783 9.00183 623.7 47.5796C655.751 85.147 692.213 113.529 735.998 128.685C766.159 139.156 795.139 139.891 826.009 134.471C857.351 128.96 887.276 124.827 918.619 133.186C955.001 142.83 997.133 163.221 1019.26 200.329C1035.33 227.334 1035.88 256.175 1066.12 267.84C1094.78 278.863 1127.39 278.22 1157.23 279.873C1208.89 282.812 1260.39 274.27 1312.13 276.291C1367.26 278.495 1421.44 292.089 1471.21 320.38C1529.33 353.446 1577.28 403.597 1624.14 454.667C1624.3 451.82 1624.3 450.35 1624.38 447.319C1576.97 396.157 1528.07 346.282 1469 314.226C1418.6 286.854 1363.95 274.729 1308.59 273.627C1256.85 272.617 1205.27 282.72 1153.61 279.046C1124.39 276.934 1091.95 277.209 1064.15 265.085C1035.64 252.593 1035.48 222.649 1019.89 196.747C997.92 160.282 955.946 140.626 920.036 131.165C888.694 122.99 858.769 126.94 827.426 132.175C796.478 137.319 767.576 135.849 737.573 124.827C694.339 108.937 656.854 82.8507 624.33 46.2018C590.94 8.54257 560.464 -31.5967 520.38 -59.9789C462.814 -100.761 394.223 -106.731 331.301 -131.348C235.305 -169.007 146.318 -227.425 56.1488 -280.423C55.44 -278.862 55.0463 -278.035 54.2588 -276.474Z" fill="url(#paint9_linear_915_931)"/>
<path d="M43.6276 -255.899C132.851 -203.268 221.681 -151.647 318.623 -121.061C384.379 -100.302 456.278 -97.7302 516.443 -57.6828C559.519 -29.025 590.389 14.1454 621.416 58.0506C634.174 76.0535 647.325 94.0565 661.343 110.774C679.061 131.991 702.923 139.891 727.178 146.32C789.705 162.945 849.713 126.297 911.768 144.299C950.906 155.689 993.431 180.581 1016.27 220.812C1023.67 233.947 1028.55 249.011 1038.48 260.125C1049.5 272.525 1064.23 277.393 1078.95 280.056C1111.24 285.751 1144.87 282.904 1177.39 282.72C1228.11 282.445 1279.61 280.424 1330.01 287.772C1383.4 295.579 1434.43 315.787 1480.42 348.578C1532.63 385.778 1575.32 436.48 1619.26 485.345C1619.89 483.508 1620.12 482.498 1620.68 480.385C1576.1 430.969 1532.32 380.175 1478.93 343.618C1432.23 311.654 1380.41 292.548 1326.7 285.751C1275.91 279.322 1224.41 282.445 1173.45 282.169C1141.4 281.985 1108.01 284.465 1076.28 277.852C1061.87 274.821 1047.77 269.402 1037.61 256.542C1028.4 244.969 1024.22 229.538 1016.82 216.587C994.14 176.999 951.694 153.025 913.028 142.003C851.13 124.459 791.28 160.557 728.91 143.197C703.868 136.216 682.448 127.307 663.626 106.64C648.821 90.3824 634.961 73.4817 621.731 55.4787C590.389 12.8594 559.676 -29.6679 517.151 -58.0502C457.38 -98.0976 385.954 -101.037 320.591 -122.346C223.65 -154.127 135.214 -207.126 45.7538 -259.757C44.8876 -258.195 44.4938 -257.461 43.6276 -255.899Z" fill="url(#paint10_linear_915_931)"/>
<path d="M31.9725 -234.406C121.354 -183.061 212.861 -138.696 310.511 -113.437C377.606 -96.1689 450.056 -94.5155 511.245 -54.6518C556.763 -24.8918 594.169 23.8815 621.18 75.5941C630.709 93.7808 634.725 114.356 648.428 129.695C666.54 149.994 692.055 155.138 715.916 160.19C780.255 173.876 842.782 136.216 906.176 157.985C949.41 172.865 984.454 202.901 1012.88 242.856C1037.14 276.933 1060.53 290.527 1099.03 291.17C1181.49 292.64 1261.02 276.474 1343.16 296.682C1394.19 309.265 1441.68 334.8 1483.65 370.714C1531.29 411.496 1566.42 472.761 1622.25 498.572C1621.3 498.204 1620.91 498.021 1620.2 497.47C1592.09 481.947 1573.5 459.719 1551.61 434.919C1530.11 410.578 1507.67 387.247 1483.18 366.948C1440.34 331.493 1391.98 306.877 1340.32 295.12C1258.27 276.474 1178.18 292.548 1095.88 289.333C1057.85 287.864 1036.11 273.167 1013.2 238.815C986.186 198.4 949.725 169.559 907.279 155.322C843.964 134.196 781.83 172.039 717.649 157.802C694.103 152.566 668.824 147.147 651.026 126.756C637.481 111.324 631.969 89.5556 621.101 71.9201C590.546 22.3201 558.731 -24.9837 512.033 -55.4785C451.238 -95.1585 379.103 -96.8118 312.401 -114.631C214.751 -140.717 123.323 -186.367 33.8625 -238.264C33.1538 -236.702 32.76 -235.967 31.9725 -234.406Z" fill="url(#paint11_linear_915_931)" fill-opacity="0.9"/>
<path d="M21.0262 -213.28C109.226 -166.068 199.946 -128.776 295.47 -108.018C366.03 -92.6786 441.236 -91.1171 505.103 -48.8653C529.83 -32.5156 551.723 -11.1142 570.465 13.7777C579.443 25.7184 590.783 39.9555 597.083 54.1006C602.123 65.3984 604.091 78.4414 607.399 90.5658C612.517 109.304 618.66 127.858 631.339 141.544C651.026 162.853 678.983 166.987 704.419 171.12C738.439 176.723 770.175 173.784 803.88 167.813C836.089 162.118 867.431 160.832 898.695 173.324C943.74 191.419 977.918 228.711 1012.8 264.809C1043.36 296.406 1074.62 304.213 1114.86 301.274C1151.8 298.61 1188.5 291.721 1225.43 288.782C1269.92 285.292 1312.29 289.425 1355.13 304.581C1404.9 322.216 1449.16 354.181 1487.59 394.687C1507.04 415.17 1521.77 440.981 1543.03 459.167C1572.87 484.794 1606.89 493.704 1643.28 497.286C1641.39 497.745 1640.44 497.929 1638.71 498.204C1602.96 492.877 1570.28 481.947 1542.24 454.483C1522.4 435.102 1506.88 410.394 1487.27 390.37C1449.08 351.609 1405.53 321.39 1356.86 304.397C1311.11 288.415 1265.51 284.465 1218.11 288.231C1182.83 290.987 1147.78 297.141 1112.42 299.345C1073.44 301.733 1043.36 293.742 1014.3 262.696C979.808 225.772 946.26 188.664 900.821 170.752C869.164 158.261 837.585 159.822 805.14 165.793C771.041 172.13 739.226 174.886 704.891 168.915C680.479 164.69 654.255 160.373 635.197 140.258C622.125 126.388 615.746 107.65 610.549 88.3614C594.877 30.954 554.006 -17.4519 509.591 -47.8549C446.04 -91.3008 370.676 -92.9542 300.037 -108.569C203.411 -129.97 111.904 -168.548 22.8375 -216.862C22.1287 -215.393 21.735 -214.658 21.0262 -213.28Z" fill="url(#paint12_linear_915_931)" fill-opacity="0.8"/>
<path d="M-0.55127 -172.773C88.6725 -131.716 180.731 -107.283 275.704 -92.5868C351.619 -80.9216 424.541 -72.3794 490.612 -22.6875C514.08 -5.05197 535.106 17.268 549.202 45.5584C559.519 66.2251 564.165 88.8206 570.622 111.232C586.766 167.17 629.764 182.693 676.856 188.48C715.207 193.164 752.062 194.267 790.492 193.624C825.772 193.072 856.642 199.869 888.536 217.872C934.211 243.683 973.744 280.699 1018.08 308.714C1059.66 334.984 1102.34 332.871 1147.78 323.961C1222.04 309.357 1298.19 284.741 1368.28 329.748C1388.99 343.067 1401.36 365.57 1414.9 387.431C1432.54 412.782 1452.15 436.388 1475.7 454.391C1547.59 509.41 1635.48 497.286 1714.94 475.333C1712.42 476.068 1711.08 476.435 1708.56 477.262C1629.18 497.653 1542.87 506.287 1473.33 447.778C1450.5 428.581 1431.67 403.964 1414.51 378.154C1408.36 368.877 1410.18 369.336 1396.71 350.874C1392.06 344.536 1386.79 339.392 1380.96 334.708C1376.23 330.942 1371.59 327.635 1366.94 324.88C1297.25 283.179 1221.41 307.336 1148.17 321.481C1102.42 330.299 1059.58 332.595 1017.92 305.499C973.507 276.658 934.054 239.274 887.985 213.28C856.012 195.277 824.591 190.133 789.39 191.419C751.117 192.797 714.656 191.878 676.462 186.918C629.842 180.764 589.365 165.058 573.615 110.038C567 86.8917 562.039 63.7451 551.329 42.4354C536.996 14.1451 516.521 -7.16457 493.054 -24.8001C426.431 -74.7675 351.697 -82.2994 275.31 -94.332C180.967 -109.304 89.5387 -134.839 1.02373 -175.988C0.39373 -174.702 0.0787304 -174.059 -0.55127 -172.773Z" fill="url(#paint13_linear_915_931)" fill-opacity="0.7"/>
<path d="M10.395 -192.613C101.036 -147.606 194.513 -116.652 291.926 -99.6592C363.668 -87.0755 436.826 -82.391 500.378 -37.1081C525.893 -19.0133 554.085 5.60303 568.89 36.4653C578.655 56.8564 583.459 79.5438 589.523 101.588C606.139 161.751 645.986 174.427 696.544 181.04C730.879 185.541 763.088 183.796 797.344 180.03C829.71 176.447 861.131 177.825 891.608 192.43C938.306 214.933 975.476 256.175 1016.98 288.415C1053.12 316.522 1090.92 318.267 1132.98 312.113C1167.31 307.061 1201.25 299.529 1235.75 295.763C1283 290.711 1325.44 294.936 1369.38 317.164C1389.39 327.36 1408.29 340.311 1425.85 355.375C1446.95 373.562 1459.16 399.923 1477.19 421.784C1530.82 486.815 1602.33 497.286 1676.12 488.101C1673.67 488.836 1672.49 489.203 1670.21 489.938C1596.34 496.919 1527.83 481.947 1477.11 414.527C1459.87 391.564 1446.64 369.612 1424.9 351.701C1406.63 336.729 1387.02 323.962 1366.31 314.133C1324.89 294.477 1284.73 289.609 1240.39 293.742C1202.28 297.233 1164.79 305.775 1126.83 310.643C1084.55 316.062 1048.71 311.562 1013.51 282.261C974.689 249.837 938.464 210.525 893.576 189.307C862.706 174.702 831.128 173.784 798.446 177.825C763.954 182.05 731.588 184.071 697.016 179.295C649.294 172.682 609.84 160.465 593.539 103.333C586.609 79.1764 582.435 50.9778 569.678 29.8519C552.746 1.74526 525.578 -22.4118 500.693 -39.8636C436.433 -84.7792 362.25 -88.4533 290.036 -101.588C193.725 -119.132 101.588 -151.004 12.1275 -195.92C11.4188 -194.634 11.1038 -193.899 10.395 -192.613Z" fill="url(#paint14_linear_915_931)" fill-opacity="0.74"/>
<path d="M-10.1587 -150.82C77.1751 -113.529 167.501 -94.5152 259.56 -81.3804C298.148 -75.8693 337.601 -71.9197 375.244 -59.9789C409.658 -49.1404 443.756 -27.6471 474.154 -6.06188C496.361 9.82849 517.781 29.1174 531.326 55.6626C540.383 73.39 544.478 93.0463 549.911 112.519C565.583 168.64 605.273 188.205 653.074 196.931C731.43 211.26 812.306 204.463 885.623 244.326C932.873 270.045 974.689 308.071 1022.25 332.78C1068.17 356.661 1114.39 350.874 1162.43 339.668C1194.48 332.228 1226.53 323.043 1259.29 320.563C1299.69 317.44 1332.53 325.523 1359.93 361.988C1396.71 410.946 1429.16 461.097 1482.63 486.999C1570.75 529.71 1670.68 498.848 1756.91 465.506C1754.47 466.057 1753.29 466.332 1750.85 466.883C1665.01 498.848 1565.55 527.414 1479.24 481.304C1427.03 453.381 1396.71 401.668 1359.07 353.997C1309.77 291.538 1224.88 322.584 1163.22 336.821C1114.86 347.935 1068.17 354.089 1022.1 329.565C974.453 304.214 932.479 265.728 884.835 240.009C813.33 201.34 734.344 209.147 657.878 196.104C609.289 187.837 568.811 168.916 552.983 111.784C547.47 91.8522 543.139 71.7366 533.689 53.7337C520.931 29.1174 501.638 10.5633 481.32 -4.86781C448.403 -29.8515 410.681 -52.6308 372.33 -63.5611C337.05 -73.6648 300.589 -77.6145 264.6 -82.7582C171.281 -96.0767 79.8526 -115.733 -8.66244 -153.943C-9.29244 -152.749 -9.52869 -152.106 -10.1587 -150.82Z" fill="url(#paint15_linear_915_931)" fill-opacity="0.4"/>
<path d="M-20.0812 -129.144C67.2526 -94.24 157.658 -80.003 248.85 -66.8681C286.493 -61.4489 325.159 -56.4889 361.305 -42.3437C392.884 -30.0356 424.778 -12.3081 454.388 5.14371C476.201 18.003 497.7 34.3526 510.93 58.9689C519.829 75.3185 523.688 93.8726 528.491 112.059C543.848 169.834 582.75 193.991 632.048 205.932C715.365 226.139 805.77 227.058 884.048 269.677C931.691 295.579 974.453 333.79 1023.44 356.018C1072.18 378.154 1120.69 370.53 1170.46 357.855C1200.78 350.139 1231.65 340.678 1262.91 340.954C1277.88 341.046 1292.84 343.067 1307.01 348.853C1327.33 357.028 1337.18 371.173 1349.78 390.83C1387.18 448.972 1428.84 499.307 1491.13 518.504C1592.64 549.825 1702.34 503.716 1795.74 459.902C1793.69 459.994 1792.67 460.086 1790.62 460.27C1699.19 502.246 1593.9 544.773 1494.83 515.381C1431.75 496.735 1389.78 445.941 1351.59 387.798C1338.83 368.418 1328.51 353.354 1308.19 345.363C1293.86 339.668 1278.51 337.647 1263.47 337.647C1231.41 337.647 1199.76 347.567 1168.65 355.375C1119.51 367.683 1071.32 374.847 1023.44 352.711C974.138 329.932 931.14 291.354 883.103 265.544C806.4 224.21 718.358 223.567 636.615 205.013C587.948 193.899 547.47 171.12 531.956 113.804C526.759 94.6074 522.821 74.9511 513.371 57.7748C500.063 33.6178 479.194 17.2682 457.931 4.22519C428.006 -14.0533 395.01 -33.4341 362.723 -45.4667C325.946 -59.2444 286.808 -63.9289 248.614 -69.44C157.894 -82.2993 68.0401 -97.2711 -18.7424 -132.175C-19.2937 -130.981 -19.5299 -130.338 -20.0812 -129.144Z" fill="url(#paint16_linear_915_931)" fill-opacity="0.35"/>
<path d="M-29.7675 -106.64C54.8888 -74.3998 142.695 -63.5613 230.501 -49.6916C300.116 -38.6694 369.022 -18.9213 433.991 12.3084C455.175 22.4121 476.437 35.8224 489.51 58.418C498.881 74.5839 502.661 93.5973 507.308 111.968C522.585 172.131 561.173 201.431 612.045 217.23C645.986 227.793 680.794 231.834 714.735 242.489C733.556 248.459 752.063 253.511 771.278 256.91C810.101 263.799 846.563 273.535 882.236 293.467C930.983 320.655 974.846 361.162 1026.43 381.369C1075.33 400.566 1123.21 392.208 1172.43 379.716C1200.94 372.459 1230.47 364.009 1259.76 365.295C1275.2 366.03 1290.56 369.428 1304.81 376.501C1325.6 386.88 1335.68 401.577 1347.41 423.529C1383.72 491.683 1435.61 541.008 1505.23 552.673C1616.19 571.319 1729.9 515.014 1828.42 462.658C1826.92 462.199 1826.13 462.015 1824.56 461.74C1726.67 512.993 1612.25 569.022 1502.31 547.897C1433.09 534.578 1382.85 484.702 1346.31 417.191C1334.42 395.239 1324.42 381.828 1303.31 372C1288.9 365.295 1273.47 362.172 1257.95 361.897C1229.13 361.437 1200.54 369.428 1172.59 376.593C1123.05 389.268 1074.62 397.719 1025.48 377.879C974.689 357.304 931.219 317.716 882.945 290.803C847.193 270.871 810.652 261.227 771.75 254.062C752.535 250.572 733.95 245.245 715.129 239.55C681.266 229.354 646.616 225.497 612.833 214.934C562.984 199.411 525.263 171.12 510.064 112.243C505.26 93.6891 501.559 74.5839 492.109 58.2343C478.879 35.2713 457.301 21.4017 435.96 10.9306C371.306 -20.7583 303.503 -41.425 234.045 -52.2635C145.53 -65.8576 56.9363 -76.9716 -28.5075 -109.671C-28.98 -108.477 -29.295 -107.834 -29.7675 -106.64Z" fill="url(#paint17_linear_915_931)" fill-opacity="0.3"/>
<path d="M-39.1387 -83.4934C44.8876 -51.5289 133.166 -43.7215 219.949 -26.7289C283.894 -14.2371 349.335 -7.44002 411.311 15.6148C433.046 23.6978 455.648 35.2711 469.035 57.9585C478.643 74.2163 482.186 93.8726 486.675 112.519C501.638 173.876 537.233 209.238 588.499 230.364C611.494 239.825 635.434 246.071 659.374 250.756C675.675 253.97 690.086 259.573 705.836 264.809C726.075 271.514 746.865 274.453 767.655 277.668C808.211 284.006 845.933 295.855 882.551 317.532C930.746 346.006 974.295 388.074 1026.19 407.087C1073.68 424.447 1121.16 417.467 1168.89 405.25C1230.63 389.452 1312.45 375.95 1347.18 455.034C1449.63 687.879 1701 563.511 1851.49 476.436C1850.63 475.425 1850.15 474.966 1849.21 474.047C1697.61 561.031 1449.95 681.173 1346.63 450.258C1311.9 372.643 1231.89 386.513 1170.93 401.668C1121.64 413.884 1073.52 421.876 1024.54 403.321C973.508 384.033 930.431 342.883 882.866 314.96C846.169 293.375 808.526 281.71 768.049 275.372C748.125 272.249 728.123 269.31 708.671 262.88C692.37 257.461 677.801 251.307 660.949 248.092C638.426 243.867 615.983 238.264 594.248 229.905C541.564 209.606 504.158 174.794 488.88 111.876C484.313 93.1378 480.69 73.6652 470.925 57.4992C457.774 35.7303 436.196 24.157 415.17 15.9822C351.54 -8.90965 283.973 -17.0845 218.059 -30.3111C132.3 -47.6711 45.3601 -54.6519 -38.0362 -86.4326C-38.5087 -85.2385 -38.7449 -84.6874 -39.1387 -83.4934Z" fill="url(#paint18_linear_915_931)" fill-opacity="0.25"/>
<path d="M-48.2737 -59.7952C31.9726 -28.6574 119.543 -14.8797 203.333 -4.133C265.309 3.85811 330.829 0.275885 391.466 18.4626C412.256 24.7085 433.913 34.0774 447.379 54.744C458.168 71.3692 461.869 92.4033 466.358 112.151C481.32 177.826 515.025 222.466 569.441 249.194C670.399 298.794 785.453 278.771 882.709 340.587C929.486 370.255 972.405 414.436 1023.67 433.174C1072.81 451.085 1118.25 442.451 1167.31 430.694C1227.08 416.457 1307.33 409.292 1345.6 478.824C1354.82 495.541 1360.09 515.105 1369.54 531.914C1379.07 548.999 1390.57 564.981 1403.8 578.3C1434.67 609.529 1473.96 625.144 1514.28 628.634C1636.11 639.197 1757.86 567.094 1862.36 503.073C1862.2 501.511 1862.04 500.777 1861.81 499.307C1757.39 562.96 1635.8 634.513 1514.21 623.858C1474.04 620.368 1434.83 604.845 1403.96 573.983C1390.73 560.848 1379.23 545.141 1369.62 528.24C1360.01 511.34 1354.66 491.775 1345.44 474.874C1307.57 405.434 1226.77 413.058 1167.63 427.571C1118.72 439.511 1072.97 447.87 1023.99 430.051C972.641 411.405 929.644 367.5 882.63 337.923C786.083 277.117 671.738 296.039 571.646 246.806C517.545 220.169 483.604 177.642 468.484 111.968C463.995 92.4033 460.294 71.4611 449.584 54.9277C436.196 34.2611 414.619 24.7085 393.829 18.3707C333.113 -0.550781 267.514 1.83737 205.223 -6.613C121.118 -18.0945 33.3901 -31.413 -47.2499 -62.5508C-47.6437 -61.3567 -47.8799 -60.8056 -48.2737 -59.7952Z" fill="url(#paint19_linear_915_931)" fill-opacity="0.2"/>
<path d="M-56.9362 -35.6385C20.4751 -3.49039 105.053 11.2059 186.874 16.1659C222.548 18.3703 258.221 18.0029 293.895 17.2681C319.253 16.717 345.398 15.1555 370.519 20.4829C391.624 24.9837 414.068 33.8015 427.77 54.1007C439.504 71.5526 443.284 94.24 447.773 115.182C453.679 142.462 460.609 169.191 473.445 193.256C493.684 231.191 526.995 251.858 561.724 268.299C625.669 298.61 693.709 302.652 761.198 312.847C804.825 319.461 844.673 336.361 882.551 362.447C927.518 393.401 969.413 439.603 1019.42 458.984C1068.87 478.089 1114.71 467.801 1164.71 458.249C1228.5 446.033 1305.75 441.716 1347.33 511.615C1356.39 526.862 1360.88 544.681 1368.36 560.939C1377.18 580.32 1388.28 598.782 1401.59 614.305C1431.2 648.933 1470.89 667.212 1512.24 671.437C1633.59 684.021 1755.65 608.978 1858.58 543.579C1859.05 541.558 1859.29 540.548 1859.76 538.527C1756.68 603.834 1635.01 678.418 1513.65 666.844C1472.47 662.895 1432.7 645.443 1402.77 611.55C1389.39 596.394 1378.2 578.483 1369.23 559.561C1361.43 543.12 1356.78 524.566 1347.65 509.043C1306.07 437.95 1227.71 443.001 1163.45 455.677C1114.63 465.321 1070.06 475.15 1021.62 457.055C971.381 438.317 929.408 392.575 884.363 361.621C846.011 335.259 805.77 318.083 761.591 311.378C694.575 301.274 626.771 296.681 563.22 267.013C528.255 250.756 496.44 230.548 475.808 192.889C462.814 169.191 455.726 142.921 449.82 115.917C445.253 95.0666 441.63 72.6548 430.29 55.2029C416.43 33.8933 393.278 24.8918 371.543 20.2074C346.421 14.7881 320.355 16.074 294.919 16.3496C259.166 16.717 223.493 16.717 187.819 14.237C106.076 8.35849 21.4201 -6.3378 -56.0699 -38.3022C-56.3849 -37.2 -56.6212 -36.7408 -56.9362 -35.6385Z" fill="url(#paint20_linear_915_931)" fill-opacity="0.15"/>
<path d="M-65.205 -11.6651C8.7413 23.0549 90.7201 35.5468 170.021 35.1794C204.514 34.9957 238.849 31.9646 273.105 28.1986C299.25 25.3512 326.261 20.9423 352.564 24.3408C373.984 27.0964 396.585 36.3734 410.209 56.7646C422.573 75.1349 426.589 99.5675 431.156 121.796C438.165 156.056 444.701 184.53 465.491 211.259C490.77 243.775 522.27 268.759 556.763 285.935C621.653 318.267 689.378 317.256 757.733 328.095C802.699 335.168 843.255 354.824 881.37 383.298C924.683 415.722 964.294 461.372 1012.49 483.784C1060.68 506.196 1111.87 494.99 1161.56 487.366C1227.87 477.262 1309.77 472.486 1351.67 546.335C1370.01 578.759 1377.02 616.969 1398.29 648.015C1423.96 685.307 1459.71 707.627 1499.79 715.802C1549.33 725.997 1600.91 714.607 1648.47 697.89C1715.18 674.468 1777.55 637.911 1838.26 598.782C1839.44 596.302 1839.99 595.016 1841.1 592.628C1779.91 632.033 1717.22 668.773 1650.21 692.563C1602.48 709.464 1550.75 721.037 1500.9 711.301C1460.89 703.493 1424.82 681.816 1398.84 644.984C1377.02 614.122 1369.86 575.911 1351.43 543.396C1309.61 469.547 1228.11 474.139 1161.88 484.519C1112.19 492.326 1061.55 503.532 1013.28 481.396C964.924 459.259 925.076 413.517 881.528 381.277C843.491 353.079 802.935 333.698 758.126 326.625C689.85 315.97 621.968 316.522 557.235 284.19C522.506 266.83 490.849 242.03 465.334 209.422C445.41 183.979 439.425 153.76 432.731 120.969C428.243 98.9246 424.226 74.7675 412.02 56.489C398.318 36.0979 375.795 26.9127 354.375 23.9734C328.23 20.2994 301.14 24.6164 275.074 27.1883C240.66 30.6786 206.325 33.4342 171.754 33.3423C92.0588 33.1586 10.0013 20.2994 -64.4175 -14.0532C-64.7325 -13.0429 -64.89 -12.5836 -65.205 -11.6651Z" fill="url(#paint21_linear_915_931)" fill-opacity="0.1"/>
</g>
<defs>
<linearGradient id="paint0_linear_915_931" x1="1506.81" y1="137.918" x2="72.839" y2="-360.645" gradientUnits="userSpaceOnUse">
<stop offset="0.00451614" stop-color="#65FFAC"/>
<stop offset="0.1416" stop-color="#65FFAC"/>
<stop offset="0.2987" stop-color="#0D0D0D" stop-opacity="0"/>
<stop offset="0.4052" stop-color="#65FFAC"/>
<stop offset="0.4602" stop-color="#65FFAC"/>
<stop offset="0.5649" stop-color="#0D0D0D" stop-opacity="0"/>
<stop offset="0.6594" stop-color="#65FFAC"/>
<stop offset="0.809" stop-color="#65FFAC"/>
<stop offset="0.8926" stop-color="#0D0D0D" stop-opacity="0"/>
<stop offset="1" stop-color="#65FFAC"/>
</linearGradient>
<linearGradient id="paint1_linear_915_931" x1="1509.28" y1="171.206" x2="62.816" y2="-331.701" gradientUnits="userSpaceOnUse">
<stop offset="0.00451614" stop-color="#65FFAC"/>
<stop offset="0.1416" stop-color="#65FFAC"/>
<stop offset="0.2077" stop-color="#429E6C" stop-opacity="0.0476"/>
<stop offset="0.2987" stop-color="#0E1410" stop-opacity="0"/>
<stop offset="0.3389" stop-color="#2C6948" stop-opacity="0.9524"/>
<stop offset="0.3517" stop-color="#358158" stop-opacity="0.9628"/>
<stop offset="0.3787" stop-color="#4DBF82" stop-opacity="0.9848"/>
<stop offset="0.3975" stop-color="#5FEEA1"/>
<stop offset="0.4052" stop-color="#65FFAC"/>
<stop offset="0.4602" stop-color="#65FFAC"/>
<stop offset="0.5649" stop-color="#0D0D0D" stop-opacity="0"/>
<stop offset="0.6594" stop-color="#65FFAC"/>
<stop offset="0.809" stop-color="#65FFAC"/>
<stop offset="0.8926" stop-color="#0D0D0D" stop-opacity="0"/>
<stop offset="1" stop-color="#65FFAC"/>
</linearGradient>
<linearGradient id="paint2_linear_915_931" x1="1518.14" y1="210.2" x2="53.1297" y2="-299.157" gradientUnits="userSpaceOnUse">
<stop offset="0.00451614" stop-color="#65FFAC"/>
<stop offset="0.1416" stop-color="#65FFAC"/>
<stop offset="0.2077" stop-color="#44A36F" stop-opacity="0.0952"/>
<stop offset="0.2987" stop-color="#0F1C14" stop-opacity="0"/>
<stop offset="0.3389" stop-color="#2A6A46" stop-opacity="0.9048"/>
<stop offset="0.3517" stop-color="#348257" stop-opacity="0.9256"/>
<stop offset="0.3787" stop-color="#4DC081" stop-opacity="0.9695"/>
<stop offset="0.3975" stop-color="#60EFA1"/>
<stop offset="0.4052" stop-color="#65FFAC"/>
<stop offset="0.4602" stop-color="#65FFAC"/>
<stop offset="0.5649" stop-color="#0D0D0D" stop-opacity="0"/>
<stop offset="0.6594" stop-color="#65FFAC"/>
<stop offset="0.809" stop-color="#65FFAC"/>
<stop offset="0.8926" stop-color="#0D0D0D" stop-opacity="0"/>
<stop offset="1" stop-color="#65FFAC"/>
</linearGradient>
<linearGradient id="paint3_linear_915_931" x1="1532.02" y1="251.665" x2="44.1682" y2="-265.632" gradientUnits="userSpaceOnUse">
<stop offset="0.00451614" stop-color="#65FFAC"/>
<stop offset="0.1416" stop-color="#65FFAC"/>
<stop offset="0.2077" stop-color="#45A873" stop-opacity="0.1429"/>
<stop offset="0.2987" stop-color="#102317" stop-opacity="0"/>
<stop offset="0.3389" stop-color="#276B45" stop-opacity="0.8571"/>
<stop offset="0.3517" stop-color="#318356" stop-opacity="0.8884"/>
<stop offset="0.3787" stop-color="#4CC181" stop-opacity="0.9543"/>
<stop offset="0.3975" stop-color="#60F0A2"/>
<stop offset="0.4052" stop-color="#65FFAC"/>
<stop offset="0.4602" stop-color="#65FFAC"/>
<stop offset="0.5649" stop-color="#0D0D0D" stop-opacity="0"/>
<stop offset="0.6594" stop-color="#65FFAC"/>
<stop offset="0.809" stop-color="#65FFAC"/>
<stop offset="0.8926" stop-color="#0D0D0D" stop-opacity="0"/>
<stop offset="1" stop-color="#65FFAC"/>
</linearGradient>
<linearGradient id="paint4_linear_915_931" x1="1549.28" y1="293.298" x2="35.8258" y2="-232.9" gradientUnits="userSpaceOnUse">
<stop offset="0.00451614" stop-color="#65FFAC"/>
<stop offset="0.1416" stop-color="#65FFAC"/>
<stop offset="0.2077" stop-color="#47AC76" stop-opacity="0.1905"/>
<stop offset="0.2987" stop-color="#102A1A" stop-opacity="0"/>
<stop offset="0.3389" stop-color="#256C43" stop-opacity="0.8095"/>
<stop offset="0.3518" stop-color="#308455" stop-opacity="0.8515"/>
<stop offset="0.379" stop-color="#4CC281" stop-opacity="0.9399"/>
<stop offset="0.3975" stop-color="#60F0A2"/>
<stop offset="0.4052" stop-color="#65FFAC"/>
<stop offset="0.4602" stop-color="#65FFAC"/>
<stop offset="0.5649" stop-color="#0D0D0D" stop-opacity="0"/>
<stop offset="0.6594" stop-color="#65FFAC"/>
<stop offset="0.809" stop-color="#65FFAC"/>
<stop offset="0.8926" stop-color="#0D0D0D" stop-opacity="0"/>
<stop offset="1" stop-color="#65FFAC"/>
</linearGradient>
<linearGradient id="paint5_linear_915_931" x1="1567.81" y1="334.465" x2="27.5821" y2="-201.043" gradientUnits="userSpaceOnUse">
<stop offset="0.00451614" stop-color="#65FFAC"/>
<stop offset="0.1416" stop-color="#65FFAC"/>
<stop offset="0.2077" stop-color="#49B179" stop-opacity="0.2381"/>
<stop offset="0.2987" stop-color="#11311E" stop-opacity="0"/>
<stop offset="0.3389" stop-color="#236D42" stop-opacity="0.7619"/>
<stop offset="0.3518" stop-color="#2E8554" stop-opacity="0.8144"/>
<stop offset="0.379" stop-color="#4BC381" stop-opacity="0.9249"/>
<stop offset="0.3975" stop-color="#60F1A3"/>
<stop offset="0.4052" stop-color="#65FFAC"/>
<stop offset="0.4602" stop-color="#65FFAC"/>
<stop offset="0.5649" stop-color="#0D0D0D" stop-opacity="0"/>
<stop offset="0.6594" stop-color="#65FFAC"/>
<stop offset="0.809" stop-color="#65FFAC"/>
<stop offset="0.8926" stop-color="#0D0D0D" stop-opacity="0"/>
<stop offset="1" stop-color="#65FFAC"/>
</linearGradient>
<linearGradient id="paint6_linear_915_931" x1="1586.26" y1="372.421" x2="19.67" y2="-172.254" gradientUnits="userSpaceOnUse">
<stop offset="0.00451614" stop-color="#65FFAC"/>
<stop offset="0.1416" stop-color="#65FFAC"/>
<stop offset="0.2077" stop-color="#4BB67C" stop-opacity="0.2857"/>
<stop offset="0.2987" stop-color="#123921" stop-opacity="0"/>
<stop offset="0.3389" stop-color="#216F40" stop-opacity="0.7143"/>
<stop offset="0.3519" stop-color="#2D8752" stop-opacity="0.7777"/>
<stop offset="0.3793" stop-color="#4BC581" stop-opacity="0.9112"/>
<stop offset="0.3975" stop-color="#61F2A3"/>
<stop offset="0.4052" stop-color="#65FFAC"/>
<stop offset="0.4602" stop-color="#65FFAC"/>
<stop offset="0.5649" stop-color="#0D0D0D" stop-opacity="0"/>
<stop offset="0.6594" stop-color="#65FFAC"/>
<stop offset="0.809" stop-color="#65FFAC"/>
<stop offset="0.8926" stop-color="#0D0D0D" stop-opacity="0"/>
<stop offset="1" stop-color="#65FFAC"/>
</linearGradient>
<linearGradient id="paint7_linear_915_931" x1="1602.67" y1="406.628" x2="11.7304" y2="-146.511" gradientUnits="userSpaceOnUse">
<stop offset="0.00451614" stop-color="#65FFAC"/>
<stop offset="0.1416" stop-color="#65FFAC"/>
<stop offset="0.2077" stop-color="#4CBB7F" stop-opacity="0.3333"/>
<stop offset="0.2987" stop-color="#134024" stop-opacity="0"/>
<stop offset="0.3389" stop-color="#1F703F" stop-opacity="0.6667"/>
<stop offset="0.3519" stop-color="#2B8852" stop-opacity="0.7407"/>
<stop offset="0.3793" stop-color="#4BC682" stop-opacity="0.8964"/>
<stop offset="0.3975" stop-color="#61F3A4"/>
<stop offset="0.4052" stop-color="#65FFAC"/>
<stop offset="0.4602" stop-color="#65FFAC"/>
<stop offset="0.5649" stop-color="#0D0D0D" stop-opacity="0"/>
<stop offset="0.6594" stop-color="#65FFAC"/>
<stop offset="0.809" stop-color="#65FFAC"/>
<stop offset="0.8926" stop-color="#0D0D0D" stop-opacity="0"/>
<stop offset="1" stop-color="#65FFAC"/>
</linearGradient>
<linearGradient id="paint8_linear_915_931" x1="1614.77" y1="437.418" x2="2.9923" y2="-122.966" gradientUnits="userSpaceOnUse">
<stop offset="0.00451614" stop-color="#65FFAC"/>
<stop offset="0.1416" stop-color="#65FFAC"/>
<stop offset="0.2077" stop-color="#4EC083" stop-opacity="0.381"/>
<stop offset="0.2987" stop-color="#144728" stop-opacity="0"/>
<stop offset="0.3389" stop-color="#1C713E" stop-opacity="0.619"/>
<stop offset="0.3519" stop-color="#298951" stop-opacity="0.7036"/>
<stop offset="0.3793" stop-color="#49C782" stop-opacity="0.8816"/>
<stop offset="0.3975" stop-color="#61F4A5"/>
<stop offset="0.4052" stop-color="#65FFAC"/>
<stop offset="0.4602" stop-color="#65FFAC"/>
<stop offset="0.5649" stop-color="#0D0D0D" stop-opacity="0"/>
<stop offset="0.6594" stop-color="#65FFAC"/>
<stop offset="0.809" stop-color="#65FFAC"/>
<stop offset="0.8926" stop-color="#0D0D0D" stop-opacity="0"/>
<stop offset="1" stop-color="#65FFAC"/>
</linearGradient>
<linearGradient id="paint9_linear_915_931" x1="1619.94" y1="466.647" x2="-7.36276" y2="-99.1333" gradientUnits="userSpaceOnUse">
<stop offset="0.00451614" stop-color="#65FFAC"/>
<stop offset="0.1416" stop-color="#65FFAC"/>
<stop offset="0.2077" stop-color="#50C586" stop-opacity="0.4286"/>
<stop offset="0.2987" stop-color="#154F2B" stop-opacity="0"/>
<stop offset="0.3389" stop-color="#1A723C" stop-opacity="0.5714"/>
<stop offset="0.3519" stop-color="#278A4F" stop-opacity="0.6666"/>
<stop offset="0.3793" stop-color="#49C881" stop-opacity="0.8668"/>
<stop offset="0.3975" stop-color="#62F5A5"/>
<stop offset="0.4052" stop-color="#65FFAC"/>
<stop offset="0.4602" stop-color="#65FFAC"/>
<stop offset="0.5649" stop-color="#0D0D0D" stop-opacity="0"/>
<stop offset="0.6594" stop-color="#65FFAC"/>
<stop offset="0.809" stop-color="#65FFAC"/>
<stop offset="0.8926" stop-color="#0D0D0D" stop-opacity="0"/>
<stop offset="1" stop-color="#65FFAC"/>
</linearGradient>
<linearGradient id="paint10_linear_915_931" x1="1618.16" y1="488.654" x2="-17.5178" y2="-80.0407" gradientUnits="userSpaceOnUse">
<stop offset="0.00451614" stop-color="#65FFAC"/>
<stop offset="0.1416" stop-color="#65FFAC"/>
<stop offset="0.2077" stop-color="#52CA89" stop-opacity="0.4762"/>
<stop offset="0.2987" stop-color="#16562E" stop-opacity="0"/>
<stop offset="0.3389" stop-color="#18733B" stop-opacity="0.5238"/>
<stop offset="0.3519" stop-color="#268B4F" stop-opacity="0.6295"/>
<stop offset="0.3793" stop-color="#49C982" stop-opacity="0.852"/>
<stop offset="0.3975" stop-color="#62F6A6"/>
<stop offset="0.4052" stop-color="#65FFAC"/>
<stop offset="0.4602" stop-color="#65FFAC"/>
<stop offset="0.5649" stop-color="#0D0D0D" stop-opacity="0"/>
<stop offset="0.6594" stop-color="#65FFAC"/>
<stop offset="0.809" stop-color="#65FFAC"/>
<stop offset="0.8926" stop-color="#0D0D0D" stop-opacity="0"/>
<stop offset="1" stop-color="#65FFAC"/>
</linearGradient>
<linearGradient id="paint11_linear_915_931" x1="1619.33" y1="506.983" x2="-26.8258" y2="-65.3531" gradientUnits="userSpaceOnUse">
<stop offset="0.00451614" stop-color="#65FFAC"/>
<stop offset="0.1416" stop-color="#65FFAC"/>
<stop offset="0.2077" stop-color="#53CE8C" stop-opacity="0.5238"/>
<stop offset="0.2987" stop-color="#165D32" stop-opacity="0"/>
<stop offset="0.3389" stop-color="#167439" stop-opacity="0.4762"/>
<stop offset="0.352" stop-color="#248C4D" stop-opacity="0.5933"/>
<stop offset="0.3796" stop-color="#48CA81" stop-opacity="0.8397"/>
<stop offset="0.3975" stop-color="#62F6A6"/>
<stop offset="0.4052" stop-color="#65FFAC"/>
<stop offset="0.4602" stop-color="#65FFAC"/>
<stop offset="0.5649" stop-color="#0D0D0D" stop-opacity="0"/>
<stop offset="0.6594" stop-color="#65FFAC"/>
<stop offset="0.809" stop-color="#65FFAC"/>
<stop offset="0.8926" stop-color="#0D0D0D" stop-opacity="0"/>
<stop offset="1" stop-color="#65FFAC"/>
</linearGradient>
<linearGradient id="paint12_linear_915_931" x1="1632.87" y1="527.247" x2="-34.8317" y2="-52.5803" gradientUnits="userSpaceOnUse">
<stop offset="0.00451614" stop-color="#65FFAC"/>
<stop offset="0.1416" stop-color="#65FFAC"/>
<stop offset="0.2077" stop-color="#55D38F" stop-opacity="0.5714"/>
<stop offset="0.2987" stop-color="#176435" stop-opacity="0"/>
<stop offset="0.3389" stop-color="#147538" stop-opacity="0.4286"/>
<stop offset="0.352" stop-color="#238D4D" stop-opacity="0.5563"/>
<stop offset="0.3796" stop-color="#48CB82" stop-opacity="0.8251"/>
<stop offset="0.3975" stop-color="#62F7A7"/>
<stop offset="0.4052" stop-color="#65FFAC"/>
<stop offset="0.4602" stop-color="#65FFAC"/>
<stop offset="0.5649" stop-color="#0D0D0D" stop-opacity="0"/>
<stop offset="0.6594" stop-color="#65FFAC"/>
<stop offset="0.809" stop-color="#65FFAC"/>
<stop offset="0.8926" stop-color="#0D0D0D" stop-opacity="0"/>
<stop offset="1" stop-color="#65FFAC"/>
</linearGradient>
<linearGradient id="paint13_linear_915_931" x1="1682.71" y1="567.993" x2="-48.8026" y2="-34.0208" gradientUnits="userSpaceOnUse">
<stop offset="0.00451614" stop-color="#65FFAC"/>
<stop offset="0.1416" stop-color="#65FFAC"/>
<stop offset="0.2077" stop-color="#59DD96" stop-opacity="0.6667"/>
<stop offset="0.2987" stop-color="#19733C" stop-opacity="0"/>
<stop offset="0.3389" stop-color="#0F7735" stop-opacity="0.3333"/>
<stop offset="0.352" stop-color="#1F8F4B" stop-opacity="0.4824"/>
<stop offset="0.3796" stop-color="#47CD81" stop-opacity="0.796"/>
<stop offset="0.3975" stop-color="#63F9A8"/>
<stop offset="0.4052" stop-color="#65FFAC"/>
<stop offset="0.4602" stop-color="#65FFAC"/>
<stop offset="0.5649" stop-color="#0D0D0D" stop-opacity="0"/>
<stop offset="0.6594" stop-color="#65FFAC"/>
<stop offset="0.809" stop-color="#65FFAC"/>
<stop offset="0.8926" stop-color="#0D0D0D" stop-opacity="0"/>
<stop offset="1" stop-color="#65FFAC"/>
</linearGradient>
<linearGradient id="paint14_linear_915_931" x1="1655.01" y1="548.885" x2="-42.2334" y2="-41.2114" gradientUnits="userSpaceOnUse">
<stop offset="0.00451614" stop-color="#65FFAC"/>
<stop offset="0.1416" stop-color="#65FFAC"/>
<stop offset="0.2077" stop-color="#57D892" stop-opacity="0.619"/>
<stop offset="0.2987" stop-color="#186C38" stop-opacity="0"/>
<stop offset="0.3389" stop-color="#127636" stop-opacity="0.381"/>
<stop offset="0.352" stop-color="#218E4B" stop-opacity="0.5193"/>
<stop offset="0.3796" stop-color="#48CC81" stop-opacity="0.8105"/>
<stop offset="0.3975" stop-color="#63F8A7"/>
<stop offset="0.4052" stop-color="#65FFAC"/>
<stop offset="0.4602" stop-color="#65FFAC"/>
<stop offset="0.5649" stop-color="#0D0D0D" stop-opacity="0"/>
<stop offset="0.6594" stop-color="#65FFAC"/>
<stop offset="0.809" stop-color="#65FFAC"/>
<stop offset="0.8926" stop-color="#0D0D0D" stop-opacity="0"/>
<stop offset="1" stop-color="#65FFAC"/>
</linearGradient>
<linearGradient id="paint15_linear_915_931" x1="1717.84" y1="577.696" x2="-49.7754" y2="-36.8699" gradientUnits="userSpaceOnUse">
<stop offset="0.00451614" stop-color="#65FFAC"/>
<stop offset="0.1416" stop-color="#65FFAC"/>
<stop offset="0.2077" stop-color="#5AE299" stop-opacity="0.7143"/>
<stop offset="0.2987" stop-color="#1A7A3F" stop-opacity="0"/>
<stop offset="0.3389" stop-color="#0D7834" stop-opacity="0.2857"/>
<stop offset="0.352" stop-color="#1D904A" stop-opacity="0.4454"/>
<stop offset="0.3796" stop-color="#46CE82" stop-opacity="0.7814"/>
<stop offset="0.3975" stop-color="#63FAA9"/>
<stop offset="0.4052" stop-color="#65FFAC"/>
<stop offset="0.4602" stop-color="#65FFAC"/>
<stop offset="0.5649" stop-color="#0D0D0D" stop-opacity="0"/>
<stop offset="0.6594" stop-color="#65FFAC"/>
<stop offset="0.809" stop-color="#65FFAC"/>
<stop offset="0.8926" stop-color="#0D0D0D" stop-opacity="0"/>
<stop offset="1" stop-color="#65FFAC"/>
</linearGradient>
<linearGradient id="paint16_linear_915_931" x1="1750.76" y1="589.361" x2="-51.9608" y2="-37.4098" gradientUnits="userSpaceOnUse">
<stop offset="0.00451614" stop-color="#65FFAC"/>
<stop offset="0.1416" stop-color="#65FFAC"/>
<stop offset="0.2077" stop-color="#5CE79C" stop-opacity="0.7619"/>
<stop offset="0.2987" stop-color="#1B8242" stop-opacity="0"/>
<stop offset="0.3389" stop-color="#0B7A32" stop-opacity="0.2381"/>
<stop offset="0.3521" stop-color="#1C9248" stop-opacity="0.4096"/>
<stop offset="0.3798" stop-color="#47D082" stop-opacity="0.7705"/>
<stop offset="0.3975" stop-color="#64FBA9"/>
<stop offset="0.4052" stop-color="#65FFAC"/>
<stop offset="0.4602" stop-color="#65FFAC"/>
<stop offset="0.5649" stop-color="#0D0D0D" stop-opacity="0"/>
<stop offset="0.6594" stop-color="#65FFAC"/>
<stop offset="0.809" stop-color="#65FFAC"/>
<stop offset="0.8926" stop-color="#0D0D0D" stop-opacity="0"/>
<stop offset="1" stop-color="#65FFAC"/>
</linearGradient>
<linearGradient id="paint17_linear_915_931" x1="1778.84" y1="605.496" x2="-55.6158" y2="-32.3091" gradientUnits="userSpaceOnUse">
<stop offset="0.00451614" stop-color="#65FFAC"/>
<stop offset="0.1416" stop-color="#65FFAC"/>
<stop offset="0.2077" stop-color="#5EEC9F" stop-opacity="0.8095"/>
<stop offset="0.2987" stop-color="#1C8946" stop-opacity="0"/>
<stop offset="0.3389" stop-color="#097B31" stop-opacity="0.1905"/>
<stop offset="0.3521" stop-color="#1A9348" stop-opacity="0.3727"/>
<stop offset="0.3798" stop-color="#46D182" stop-opacity="0.7561"/>
<stop offset="0.3975" stop-color="#64FCAA"/>
<stop offset="0.4052" stop-color="#65FFAC"/>
<stop offset="0.4602" stop-color="#65FFAC"/>
<stop offset="0.5649" stop-color="#0D0D0D" stop-opacity="0"/>
<stop offset="0.6594" stop-color="#65FFAC"/>
<stop offset="0.809" stop-color="#65FFAC"/>
<stop offset="0.8926" stop-color="#0D0D0D" stop-opacity="0"/>
<stop offset="1" stop-color="#65FFAC"/>
</linearGradient>
<linearGradient id="paint18_linear_915_931" x1="1799.3" y1="626.969" x2="-61.2777" y2="-19.9169" gradientUnits="userSpaceOnUse">
<stop offset="0.00451614" stop-color="#65FFAC"/>
<stop offset="0.1416" stop-color="#65FFAC"/>
<stop offset="0.2077" stop-color="#60F0A2" stop-opacity="0.8571"/>
<stop offset="0.2987" stop-color="#1C9049" stop-opacity="0"/>
<stop offset="0.3389" stop-color="#077C2F" stop-opacity="0.1429"/>
<stop offset="0.3522" stop-color="#199446" stop-opacity="0.3371"/>
<stop offset="0.3801" stop-color="#46D282" stop-opacity="0.746"/>
<stop offset="0.3975" stop-color="#64FCAA"/>
<stop offset="0.4052" stop-color="#65FFAC"/>
<stop offset="0.4602" stop-color="#65FFAC"/>
<stop offset="0.5649" stop-color="#0D0D0D" stop-opacity="0"/>
<stop offset="0.6594" stop-color="#65FFAC"/>
<stop offset="0.809" stop-color="#65FFAC"/>
<stop offset="0.8926" stop-color="#0D0D0D" stop-opacity="0"/>
<stop offset="1" stop-color="#65FFAC"/>
</linearGradient>
<linearGradient id="paint19_linear_915_931" x1="1809.56" y1="655.123" x2="-69.6365" y2="1.76252" gradientUnits="userSpaceOnUse">
<stop offset="0.00451614" stop-color="#65FFAC"/>
<stop offset="0.1416" stop-color="#65FFAC"/>
<stop offset="0.2077" stop-color="#61F5A6" stop-opacity="0.9048"/>
<stop offset="0.2987" stop-color="#1D974C" stop-opacity="0"/>
<stop offset="0.3389" stop-color="#047D2E" stop-opacity="0.0952"/>
<stop offset="0.3522" stop-color="#169546" stop-opacity="0.3003"/>
<stop offset="0.3801" stop-color="#45D382" stop-opacity="0.7319"/>
<stop offset="0.3975" stop-color="#64FDAB"/>
<stop offset="0.4052" stop-color="#65FFAC"/>
<stop offset="0.4602" stop-color="#65FFAC"/>
<stop offset="0.5649" stop-color="#0D0D0D" stop-opacity="0"/>
<stop offset="0.6594" stop-color="#65FFAC"/>
<stop offset="0.809" stop-color="#65FFAC"/>
<stop offset="0.8926" stop-color="#0D0D0D" stop-opacity="0"/>
<stop offset="1" stop-color="#65FFAC"/>
</linearGradient>
<linearGradient id="paint20_linear_915_931" x1="1808.98" y1="686.353" x2="-79.6869" y2="29.7022" gradientUnits="userSpaceOnUse">
<stop offset="0.00451614" stop-color="#65FFAC"/>
<stop offset="0.1416" stop-color="#65FFAC"/>
<stop offset="0.2077" stop-color="#63FAA9" stop-opacity="0.9524"/>
<stop offset="0.2987" stop-color="#1E9F50" stop-opacity="0"/>
<stop offset="0.3389" stop-color="#027E2C" stop-opacity="0.0476"/>
<stop offset="0.3522" stop-color="#159644" stop-opacity="0.2635"/>
<stop offset="0.3801" stop-color="#45D482" stop-opacity="0.7178"/>
<stop offset="0.3975" stop-color="#65FEAB"/>
<stop offset="0.4052" stop-color="#65FFAC"/>
<stop offset="0.4602" stop-color="#65FFAC"/>
<stop offset="0.5649" stop-color="#0D0D0D" stop-opacity="0"/>
<stop offset="0.6594" stop-color="#65FFAC"/>
<stop offset="0.809" stop-color="#65FFAC"/>
<stop offset="0.8926" stop-color="#0D0D0D" stop-opacity="0"/>
<stop offset="1" stop-color="#65FFAC"/>
</linearGradient>
<linearGradient id="paint21_linear_915_931" x1="1796.16" y1="721.792" x2="-91.9943" y2="65.3176" gradientUnits="userSpaceOnUse">
<stop offset="0.00451614" stop-color="#65FFAC"/>
<stop offset="0.2077" stop-color="#65FFAC"/>
<stop offset="0.3389" stop-color="#007F2B" stop-opacity="0"/>
<stop offset="0.3521" stop-color="#139743" stop-opacity="0.2251"/>
<stop offset="0.3798" stop-color="#44D581" stop-opacity="0.6988"/>
<stop offset="0.3975" stop-color="#65FFAC"/>
<stop offset="0.4602" stop-color="#65FFAC"/>
<stop offset="0.5649" stop-color="#0D0D0D" stop-opacity="0"/>
<stop offset="0.6594" stop-color="#65FFAC"/>
<stop offset="0.809" stop-color="#65FFAC"/>
<stop offset="0.8926" stop-color="#0D0D0D" stop-opacity="0"/>
<stop offset="1" stop-color="#65FFAC"/>
</linearGradient>
<clipPath id="clip0_915_931">
<rect width="1512" height="992" fill="white"/>
</clipPath>
</defs>
</svg>
