<svg width="22" height="14" viewBox="0 0 22 14" fill="none" xmlns="http://www.w3.org/2000/svg">
<path d="M17.2166 14C16.4953 14 15.8372 13.8913 15.2424 13.674C14.6477 13.4438 14.1415 13.1306 13.7239 12.7342C13.3063 12.3251 12.9773 11.8329 12.7368 11.2575C12.5091 10.6822 12.3952 10.0429 12.3952 9.33973C12.3952 8.61096 12.5217 7.85023 12.7748 7.05753C13.0406 6.26484 13.4202 5.46575 13.9137 4.66027C14.4072 3.85479 15.002 3.0621 15.698 2.28219C16.4067 1.4895 17.2102 0.728767 18.1087 0L20.2916 1.72603C19.874 2.16073 19.4944 2.57626 19.1527 2.9726C18.8237 3.36895 18.52 3.7653 18.2416 4.16164C17.9632 4.55799 17.7038 4.96712 17.4633 5.38904C17.2355 5.81096 17.0267 6.25845 16.8369 6.73151L22 9.33973C22 10.0301 21.8671 10.663 21.6014 11.2384C21.3483 11.8137 21.0066 12.3059 20.5764 12.7151C20.1461 13.1242 19.6399 13.4438 19.0578 13.674C18.4757 13.8913 17.8619 14 17.2166 14ZM4.8214 14C4.10009 14 3.44205 13.8913 2.84728 13.674C2.25252 13.4438 1.74633 13.1306 1.32873 12.7342C0.91113 12.3251 0.582111 11.8329 0.341674 11.2575C0.113891 10.6822 0 10.0429 0 9.33973C0 8.61096 0.126546 7.85023 0.379638 7.05753C0.645384 6.26484 1.02502 5.46575 1.51855 4.66027C2.01208 3.85479 2.60684 3.0621 3.30285 2.28219C4.0115 1.4895 4.81507 0.728767 5.71355 0L7.89646 1.72603C7.47886 2.16073 7.09922 2.57626 6.75755 2.9726C6.42853 3.36895 6.12482 3.7653 5.84642 4.16164C5.56802 4.55799 5.3086 4.96712 5.06816 5.38904C4.84038 5.81096 4.63158 6.25845 4.44176 6.73151L9.60483 9.33973C9.60483 10.0301 9.47196 10.663 9.20621 11.2384C8.95312 11.8137 8.61145 12.3059 8.18119 12.7151C7.75093 13.1242 7.24475 13.4438 6.66264 13.674C6.08053 13.8913 5.46678 14 4.8214 14Z" fill="#30F6AF"/>
</svg>
