<svg width="63" height="14" viewBox="0 0 63 14" fill="none" xmlns="http://www.w3.org/2000/svg">
<path d="M31.287 3.44615C28.838 3.44615 27.0723 4.99692 27.0723 7.32308C27.0723 9.64923 29.0599 11.2 31.5089 11.2C32.9885 11.2 34.2929 10.6314 35.1003 9.67292L33.4033 8.72092C32.9552 9.19692 32.2742 9.47477 31.5089 9.47477C30.4463 9.47477 29.5434 8.93631 29.2085 8.07477H35.4242C35.473 7.83354 35.5018 7.58369 35.5018 7.32092C35.5018 4.99692 33.7361 3.44615 31.287 3.44615ZM29.1885 6.56923C29.4658 5.70985 30.2245 5.16923 31.2848 5.16923C32.3474 5.16923 33.1061 5.70985 33.3811 6.56923H29.1885ZM55.1738 3.44615C52.7248 3.44615 50.959 4.99692 50.959 7.32308C50.959 9.64923 52.9466 11.2 55.3956 11.2C56.8752 11.2 58.1796 10.6314 58.9871 9.67292L57.2901 8.72092C56.842 9.19692 56.1609 9.47477 55.3956 9.47477C54.3331 9.47477 53.4302 8.93631 53.0952 8.07477H59.3109C59.3598 7.83354 59.3886 7.58369 59.3886 7.32092C59.3886 4.99692 57.6228 3.44615 55.1738 3.44615ZM53.0775 6.56923C53.3548 5.70985 54.1134 5.16923 55.1738 5.16923C56.2364 5.16923 56.995 5.70985 57.2701 6.56923H53.0775ZM44.4194 7.32308C44.4194 8.61538 45.289 9.47692 46.6377 9.47692C47.5517 9.47692 48.2371 9.07415 48.5899 8.41723L50.2935 9.37138C49.5881 10.5129 48.266 11.2 46.6377 11.2C44.1865 11.2 42.423 9.64923 42.423 7.32308C42.423 4.99692 44.1887 3.44615 46.6377 3.44615C48.266 3.44615 49.5859 4.13323 50.2935 5.27477L48.5899 6.22892C48.2371 5.572 47.5517 5.16923 46.6377 5.16923C45.2912 5.16923 44.4194 6.03077 44.4194 7.32308ZM62.716 1.07692V10.9846H60.7196V1.07692H62.716ZM8.19665 0L16.3933 13.7846H0L8.19665 0ZM28.6894 1.07692L22.5425 11.4154L16.3955 1.07692H18.7004L22.5425 7.53846L26.3846 1.07692H28.6894ZM41.7575 3.66154V5.74862C41.5356 5.68615 41.3005 5.64308 41.0476 5.64308C39.7588 5.64308 38.8293 6.50462 38.8293 7.79692V10.9846H36.8328V3.66154H38.8293V5.64308C38.8293 4.54892 40.1403 3.66154 41.7575 3.66154Z" fill="white"/>
</svg>
